<svg id="enrichment_category_graph_svg" height="302.27976pt" version="1.1" viewBox="0 0 659.39976 302.27976" width="659.39976pt" xmlns="http://www.w3.org/2000/svg" xmlns:xlink="http://www.w3.org/1999/xlink">
 <metadata>
  <rdf:rdf xmlns:cc="http://creativecommons.org/ns#" xmlns:dc="http://purl.org/dc/elements/1.1/" xmlns:rdf="http://www.w3.org/1999/02/22-rdf-syntax-ns#">
   <cc:work>
    <dc:type rdf:resource="http://purl.org/dc/dcmitype/StillImage"/>
    <dc:date>2025-08-13T11:33:41.858355</dc:date>
    <dc:format>image/svg+xml</dc:format>
    <dc:creator>
     <cc:agent>
      <dc:title>Matplotlib v3.4.2, https://matplotlib.org/</dc:title>
     </cc:agent>
    </dc:creator>
   </cc:work>
  </rdf:rdf>
 </metadata>
 <defs>
  <style type="text/css">*{stroke-linecap:butt;stroke-linejoin:round;}</style>
 </defs>
 <g id="figure_1">
  <g id="patch_1">
   <path d="M 0 302.27976 &#10;L 659.39976 302.27976 &#10;L 659.39976 0 &#10;L 0 0 &#10;z&#10;" style="fill:none;"/>
  </g>
  <g id="axes_1">
   <g id="patch_2">
    <path d="M 162.778906 265.237957 &#10;L 538.862296 265.237957 &#10;L 538.862296 21.207656 &#10;L 162.778906 21.207656 &#10;z&#10;" style="fill:none;"/>
   </g>
   <g id="matplotlib.axis_1">
    <g id="xtick_1">
     <g id="line2d_1">
      <path clip-path="url(#pa920c06bba)" d="M 186.953862 265.237957 &#10;L 186.953862 21.207656 &#10;" style="fill:none;stroke:#d3d3d3;stroke-dasharray:2.22,0.96;stroke-dashoffset:0;stroke-width:0.6;"/>
     </g>
     <g id="line2d_2"/>
     <g id="text_1">
      <text style="font-family:Arial;font-size:9px;font-stretch:normal;font-style:normal;font-weight:normal;text-anchor:middle;" transform="rotate(-0, 186.953862, 275.179989)" x="186.953862" y="275.179989">5.650</text>
     </g>
    </g>
    <g id="xtick_2">
     <g id="line2d_3">
      <path clip-path="url(#pa920c06bba)" d="M 237.023142 265.237957 &#10;L 237.023142 21.207656 &#10;" style="fill:none;stroke:#d3d3d3;stroke-dasharray:2.22,0.96;stroke-dashoffset:0;stroke-width:0.6;"/>
     </g>
     <g id="line2d_4"/>
     <g id="text_2">
      <text style="font-family:Arial;font-size:9px;font-stretch:normal;font-style:normal;font-weight:normal;text-anchor:middle;" transform="rotate(-0, 237.023142, 275.179989)" x="237.023142" y="275.179989">5.675</text>
     </g>
    </g>
    <g id="xtick_3">
     <g id="line2d_5">
      <path clip-path="url(#pa920c06bba)" d="M 287.092422 265.237957 &#10;L 287.092422 21.207656 &#10;" style="fill:none;stroke:#d3d3d3;stroke-dasharray:2.22,0.96;stroke-dashoffset:0;stroke-width:0.6;"/>
     </g>
     <g id="line2d_6"/>
     <g id="text_3">
      <text style="font-family:Arial;font-size:9px;font-stretch:normal;font-style:normal;font-weight:normal;text-anchor:middle;" transform="rotate(-0, 287.092422, 275.179989)" x="287.092422" y="275.179989">5.700</text>
     </g>
    </g>
    <g id="xtick_4">
     <g id="line2d_7">
      <path clip-path="url(#pa920c06bba)" d="M 337.161701 265.237957 &#10;L 337.161701 21.207656 &#10;" style="fill:none;stroke:#d3d3d3;stroke-dasharray:2.22,0.96;stroke-dashoffset:0;stroke-width:0.6;"/>
     </g>
     <g id="line2d_8"/>
     <g id="text_4">
      <text style="font-family:Arial;font-size:9px;font-stretch:normal;font-style:normal;font-weight:normal;text-anchor:middle;" transform="rotate(-0, 337.161701, 275.179989)" x="337.161701" y="275.179989">5.725</text>
     </g>
    </g>
    <g id="xtick_5">
     <g id="line2d_9">
      <path clip-path="url(#pa920c06bba)" d="M 387.230981 265.237957 &#10;L 387.230981 21.207656 &#10;" style="fill:none;stroke:#d3d3d3;stroke-dasharray:2.22,0.96;stroke-dashoffset:0;stroke-width:0.6;"/>
     </g>
     <g id="line2d_10"/>
     <g id="text_5">
      <text style="font-family:Arial;font-size:9px;font-stretch:normal;font-style:normal;font-weight:normal;text-anchor:middle;" transform="rotate(-0, 387.230981, 275.179989)" x="387.230981" y="275.179989">5.750</text>
     </g>
    </g>
    <g id="xtick_6">
     <g id="line2d_11">
      <path clip-path="url(#pa920c06bba)" d="M 437.300261 265.237957 &#10;L 437.300261 21.207656 &#10;" style="fill:none;stroke:#d3d3d3;stroke-dasharray:2.22,0.96;stroke-dashoffset:0;stroke-width:0.6;"/>
     </g>
     <g id="line2d_12"/>
     <g id="text_6">
      <text style="font-family:Arial;font-size:9px;font-stretch:normal;font-style:normal;font-weight:normal;text-anchor:middle;" transform="rotate(-0, 437.300261, 275.179989)" x="437.300261" y="275.179989">5.775</text>
     </g>
    </g>
    <g id="xtick_7">
     <g id="line2d_13">
      <path clip-path="url(#pa920c06bba)" d="M 487.369541 265.237957 &#10;L 487.369541 21.207656 &#10;" style="fill:none;stroke:#d3d3d3;stroke-dasharray:2.22,0.96;stroke-dashoffset:0;stroke-width:0.6;"/>
     </g>
     <g id="line2d_14"/>
     <g id="text_7">
      <text style="font-family:Arial;font-size:9px;font-stretch:normal;font-style:normal;font-weight:normal;text-anchor:middle;" transform="rotate(-0, 487.369541, 275.179989)" x="487.369541" y="275.179989">5.800</text>
     </g>
    </g>
    <g id="xtick_8">
     <g id="line2d_15">
      <path clip-path="url(#pa920c06bba)" d="M 537.438821 265.237957 &#10;L 537.438821 21.207656 &#10;" style="fill:none;stroke:#d3d3d3;stroke-dasharray:2.22,0.96;stroke-dashoffset:0;stroke-width:0.6;"/>
     </g>
     <g id="line2d_16"/>
     <g id="text_8">
      <text style="font-family:Arial;font-size:9px;font-stretch:normal;font-style:normal;font-weight:normal;text-anchor:middle;" transform="rotate(-0, 537.438821, 275.179989)" x="537.438821" y="275.179989">5.825</text>
     </g>
    </g>
    <g id="text_9">
     <text style="font-family:Arial;font-size:9px;font-stretch:normal;font-style:normal;font-weight:normal;text-anchor:middle;" transform="rotate(-0, 350.820601, 287.41077)" x="350.820601" y="287.41077">Enrichment score</text>
    </g>
   </g>
   <g id="matplotlib.axis_2">
    <g id="ytick_1">
     <g id="line2d_17"/>
     <g id="text_10">
      <text style="font-family:Arial;font-size:9px;font-stretch:normal;font-style:normal;font-weight:normal;" transform="translate(53.243437 76.550294)">Mixed, incl. Mitotic Spindle</text>
      <text style="font-family:Arial;font-size:9px;font-stretch:normal;font-style:normal;font-weight:normal;" transform="translate(41.736094 86.201107)">Checkpoint, and Mitotic sister</text>
      <text style="font-family:Arial;font-size:9px;font-stretch:normal;font-style:normal;font-weight:normal;" transform="translate(70.235156 95.720294)">chromatid segregation</text>
     </g>
    </g>
    <g id="ytick_2">
     <g id="line2d_18"/>
     <g id="text_11">
      <text style="font-family:Arial;font-size:9px;font-stretch:normal;font-style:normal;font-weight:normal;" transform="translate(25.223906 137.570947)">Mixed, incl. Amplification of signal</text>
      <text style="font-family:Arial;font-size:9px;font-stretch:normal;font-style:normal;font-weight:normal;" transform="translate(7.2 147.195604)">from the kinetochores, and Condensin</text>
      <text style="font-family:Arial;font-size:9px;font-stretch:normal;font-style:normal;font-weight:normal;" transform="translate(125.767969 156.714791)">complex</text>
     </g>
    </g>
    <g id="ytick_3">
     <g id="line2d_19"/>
     <g id="text_12">
      <text style="font-family:Arial;font-size:9px;font-stretch:normal;font-style:normal;font-weight:normal;" transform="translate(25.223906 198.578523)">Mixed, incl. Amplification of signal</text>
      <text style="font-family:Arial;font-size:9px;font-stretch:normal;font-style:normal;font-weight:normal;" transform="translate(24.226875 208.203179)">from the kinetochores, and Mitotic</text>
      <text style="font-family:Arial;font-size:9px;font-stretch:normal;font-style:normal;font-weight:normal;" transform="translate(46.233281 217.722367)">sister chromatid segregation</text>
     </g>
    </g>
   </g>
   <g id="patch_3">
    <path clip-path="url(#pa920c06bba)" d="M 162.778906 52.931595 &#10;L 538.862296 52.931595 &#10;L 538.862296 229.853564 &#10;L 162.778906 229.853564 &#10;z&#10;" style="fill:#d6efb3;opacity:0.1;"/>
   </g>
   <g id="horizontalLine_NetworkNeighborAL:CL:6596">
    <path data-original-stroke="grey" clip-path="url(#pa920c06bba)" d="M 162.778906 82.215232 &#10;L 518.97327 82.215232 &#10;" style="fill:none;stroke:#d6efb3;stroke-linecap:square;stroke-width:3;"/>
   </g>
   <g id="horizontalLine_NetworkNeighborAL:CL:6604">
    <path data-original-stroke="grey" clip-path="url(#pa920c06bba)" d="M 162.778906 143.222807 &#10;L 188.395857 143.222807 &#10;" style="fill:none;stroke:#234da0;stroke-linecap:square;stroke-width:3;"/>
   </g>
   <g id="horizontalLine_NetworkNeighborAL:CL:6597">
    <path data-original-stroke="grey" clip-path="url(#pa920c06bba)" d="M 162.778906 204.230382 &#10;L 182.667932 204.230382 &#10;" style="fill:none;stroke:#2fa4c2;stroke-linecap:square;stroke-width:3;"/>
   </g>
   <g id="line2d_20">
    <path clip-path="url(#pa920c06bba)" d="M 162.778906 82.215232 &#10;L 518.97327 82.215232 &#10;" style="fill:none;stroke:#ffffff;stroke-linecap:square;stroke-opacity:0.4;stroke-width:3;"/>
   </g>
   <g id="line2d_21">
    <path clip-path="url(#pa920c06bba)" d="M 162.778906 143.222807 &#10;L 188.395857 143.222807 &#10;" style="fill:none;stroke:#ffffff;stroke-linecap:square;stroke-opacity:0.4;stroke-width:3;"/>
   </g>
   <g id="line2d_22">
    <path clip-path="url(#pa920c06bba)" d="M 162.778906 204.230382 &#10;L 182.667932 204.230382 &#10;" style="fill:none;stroke:#ffffff;stroke-linecap:square;stroke-opacity:0.4;stroke-width:3;"/>
   </g>
   <g id="dots_plot">
    <path id="circle_NetworkNeighborAL:CL:6596" data-original-stroke="grey" clip-path="url(#pa920c06bba)" d="M 518.97327 94.46268 &#10;C 522.221332 94.46268 525.336798 93.172212 527.633524 90.875486 &#10;C 529.93025 88.578759 531.220719 85.463293 531.220719 82.215232 &#10;C 531.220719 78.96717 529.93025 75.851704 527.633524 73.554978 &#10;C 525.336798 71.258251 522.221332 69.967783 518.97327 69.967783 &#10;C 515.725209 69.967783 512.609742 71.258251 510.313016 73.554978 &#10;C 508.01629 75.851704 506.725821 78.96717 506.725821 82.215232 &#10;C 506.725821 85.463293 508.01629 88.578759 510.313016 90.875486 &#10;C 512.609742 93.172212 515.725209 94.46268 518.97327 94.46268 &#10;z&#10;" style="fill:#d6efb3;stroke:#d6efb3;stroke-width:2.2;"/>
    <path id="circle_NetworkNeighborAL:CL:6604" data-original-stroke="grey" clip-path="url(#pa920c06bba)" d="M 188.395857 150.293875 &#10;C 190.271126 150.293875 192.069842 149.548822 193.395857 148.222807 &#10;C 194.721873 146.896791 195.466925 145.098076 195.466925 143.222807 &#10;C 195.466925 141.347538 194.721873 139.548822 193.395857 138.222807 &#10;C 192.069842 136.896791 190.271126 136.151739 188.395857 136.151739 &#10;C 186.520588 136.151739 184.721873 136.896791 183.395857 138.222807 &#10;C 182.069842 139.548822 181.324789 141.347538 181.324789 143.222807 &#10;C 181.324789 145.098076 182.069842 146.896791 183.395857 148.222807 &#10;C 184.721873 149.548822 186.520588 150.293875 188.395857 150.293875 &#10;z&#10;" style="fill:#234da0;stroke:#234da0;stroke-width:2.2;"/>
    <path id="circle_NetworkNeighborAL:CL:6597" data-original-stroke="grey" clip-path="url(#pa920c06bba)" d="M 182.667932 214.230382 &#10;C 185.319963 214.230382 187.86373 213.176719 189.738999 211.30145 &#10;C 191.614269 209.426181 192.667932 206.882413 192.667932 204.230382 &#10;C 192.667932 201.578351 191.614269 199.034583 189.738999 197.159314 &#10;C 187.86373 195.284045 185.319963 194.230382 182.667932 194.230382 &#10;C 180.015901 194.230382 177.472133 195.284045 175.596864 197.159314 &#10;C 173.721595 199.034583 172.667932 201.578351 172.667932 204.230382 &#10;C 172.667932 206.882413 173.721595 209.426181 175.596864 211.30145 &#10;C 177.472133 213.176719 180.015901 214.230382 182.667932 214.230382 &#10;z&#10;" style="fill:#2fa4c2;stroke:#2fa4c2;stroke-width:2.2;"/>
   </g>
   <g id="PathCollection_1">
    <path clip-path="url(#pa920c06bba)" d="M 518.97327 94.46268 &#10;C 522.221332 94.46268 525.336798 93.172212 527.633524 90.875486 &#10;C 529.93025 88.578759 531.220719 85.463293 531.220719 82.215232 &#10;C 531.220719 78.96717 529.93025 75.851704 527.633524 73.554978 &#10;C 525.336798 71.258251 522.221332 69.967783 518.97327 69.967783 &#10;C 515.725209 69.967783 512.609742 71.258251 510.313016 73.554978 &#10;C 508.01629 75.851704 506.725821 78.96717 506.725821 82.215232 &#10;C 506.725821 85.463293 508.01629 88.578759 510.313016 90.875486 &#10;C 512.609742 93.172212 515.725209 94.46268 518.97327 94.46268 &#10;z&#10;" style="fill:none;stroke:#808080;stroke-opacity:0.45;stroke-width:2.2;"/>
    <path clip-path="url(#pa920c06bba)" d="M 188.395857 150.293875 &#10;C 190.271126 150.293875 192.069842 149.548822 193.395857 148.222807 &#10;C 194.721873 146.896791 195.466925 145.098076 195.466925 143.222807 &#10;C 195.466925 141.347538 194.721873 139.548822 193.395857 138.222807 &#10;C 192.069842 136.896791 190.271126 136.151739 188.395857 136.151739 &#10;C 186.520588 136.151739 184.721873 136.896791 183.395857 138.222807 &#10;C 182.069842 139.548822 181.324789 141.347538 181.324789 143.222807 &#10;C 181.324789 145.098076 182.069842 146.896791 183.395857 148.222807 &#10;C 184.721873 149.548822 186.520588 150.293875 188.395857 150.293875 &#10;z&#10;" style="fill:none;stroke:#808080;stroke-opacity:0.45;stroke-width:2.2;"/>
    <path clip-path="url(#pa920c06bba)" d="M 182.667932 214.230382 &#10;C 185.319963 214.230382 187.86373 213.176719 189.738999 211.30145 &#10;C 191.614269 209.426181 192.667932 206.882413 192.667932 204.230382 &#10;C 192.667932 201.578351 191.614269 199.034583 189.738999 197.159314 &#10;C 187.86373 195.284045 185.319963 194.230382 182.667932 194.230382 &#10;C 180.015901 194.230382 177.472133 195.284045 175.596864 197.159314 &#10;C 173.721595 199.034583 172.667932 201.578351 172.667932 204.230382 &#10;C 172.667932 206.882413 173.721595 209.426181 175.596864 211.30145 &#10;C 177.472133 213.176719 180.015901 214.230382 182.667932 214.230382 &#10;z&#10;" style="fill:none;stroke:#808080;stroke-opacity:0.45;stroke-width:2.2;"/>
   </g>
   <g id="text_13">
    <text style="font-family:Arial;font-size:11px;font-stretch:normal;font-style:normal;font-weight:normal;text-anchor:middle;" transform="rotate(-0, 350.820601, 15.207656)" x="350.820601" y="15.207656">Local Network Cluster (STRING) enrichment</text>
   </g>
   <g id="line2d_23">
    <path clip-path="url(#pa920c06bba)" d="M 518.97327 71.233868 &#10;L 518.97327 93.196595 &#10;" style="fill:none;stroke:#808080;stroke-dasharray:1.85,0.8;stroke-dashoffset:0;stroke-width:0.5;"/>
   </g>
   <g id="line2d_24">
    <path clip-path="url(#pa920c06bba)" d="M 188.395857 139.562352 &#10;L 188.395857 146.883261 &#10;" style="fill:none;stroke:#808080;stroke-dasharray:1.85,0.8;stroke-dashoffset:0;stroke-width:0.5;"/>
   </g>
   <g id="line2d_25">
    <path clip-path="url(#pa920c06bba)" d="M 182.667932 196.909473 &#10;L 182.667932 211.551291 &#10;" style="fill:none;stroke:#808080;stroke-dasharray:1.85,0.8;stroke-dashoffset:0;stroke-width:0.5;"/>
   </g>
   <g id="invisibleRectangle_NetworkNeighborAL:CL:6597">
    <path clip-path="url(#pa920c06bba)" d="M 162.778906 174.946746 &#10;L 538.862296 174.946746 &#10;L 538.862296 229.853564 &#10;L 162.778906 229.853564 &#10;z&#10;" style="fill:#ffffff;opacity:0.01;"/>
   </g>
   <g id="invisibleRectangle_NetworkNeighborAL:CL:6604">
    <path clip-path="url(#pa920c06bba)" d="M 162.778906 113.939171 &#10;L 538.862296 113.939171 &#10;L 538.862296 168.845989 &#10;L 162.778906 168.845989 &#10;z&#10;" style="fill:#ffffff;opacity:0.01;"/>
   </g>
   <g id="invisibleRectangle_NetworkNeighborAL:CL:6596">
    <path clip-path="url(#pa920c06bba)" d="M 162.778906 52.931595 &#10;L 538.862296 52.931595 &#10;L 538.862296 107.838413 &#10;L 162.778906 107.838413 &#10;z&#10;" style="fill:#ffffff;opacity:0.01;"/>
   </g>
  </g>
  <g id="axes_2">
   <g id="patch_4">
    <path d="M 555.178673 265.237957 &#10;L 649.19952 265.237957 &#10;L 649.19952 21.207656 &#10;L 555.178673 21.207656 &#10;z&#10;" style="fill:none;"/>
   </g>
   <g id="patch_5">
    <path clip-path="url(#pdeaf2a8d0d)" d="M 555.178673 230.158602 &#10;L 566.931279 230.158602 &#10;L 566.931279 52.626558 &#10;L 555.178673 52.626558 &#10;z&#10;" style="fill:#d6efb3;"/>
   </g>
   <g id="matplotlib.axis_3"/>
   <g id="matplotlib.axis_4"/>
   <g id="text_14">
    <text style="font-family:Arial;font-size:9px;font-stretch:normal;font-style:normal;font-weight:normal;" transform="translate(581.012635 184.872707)rotate(-90)">Groups at similarity 0.9</text>
   </g>
  </g>
  <g id="axes_3">
   <g id="patch_6">
    <path d="M 587.39976 122.99976 &#10;L 652.19976 122.99976 &#10;L 652.19976 14.99976 &#10;L 587.39976 14.99976 &#10;z&#10;" style="fill:none;"/>
   </g>
   <g id="PathCollection_2">
    <defs>
     <path d="M -70.710678 70.710678 &#10;L 70.710678 70.710678 &#10;L 70.710678 -70.710678 &#10;L -70.710678 -70.710678 &#10;z&#10;" id="m5ed554e93d" style="stroke:#ffffff;stroke-opacity:0.6;"/>
    </defs>
    <g clip-path="url(#pc9e12df3c3)">
     <use style="fill:#ffffff;fill-opacity:0.6;stroke:#ffffff;stroke-opacity:0.6;" x="619.79976" xlink:href="#m5ed554e93d" y="68.99976"/>
    </g>
   </g>
   <g id="matplotlib.axis_5">
    <g id="xtick_9"/>
    <g id="xtick_10"/>
    <g id="xtick_11"/>
   </g>
   <g id="matplotlib.axis_6">
    <g id="ytick_4"/>
    <g id="ytick_5"/>
    <g id="ytick_6"/>
    <g id="ytick_7"/>
    <g id="ytick_8"/>
   </g>
  </g>
  <g id="axes_4">
   <g id="patch_7">
    <path d="M 593.87976 119.39976 &#10;L 604.67976 119.39976 &#10;L 604.67976 32.99976 &#10;L 593.87976 32.99976 &#10;z&#10;" style="fill:none;"/>
   </g>
   <g id="patch_8">
    <path clip-path="url(#p5bf75cb1e8)" d="M 593.87976 32.99976 &#10;L 593.87976 47.39976 &#10;L 593.87976 104.99976 &#10;L 593.87976 119.39976 &#10;L 604.67976 119.39976 &#10;L 604.67976 104.99976 &#10;L 604.67976 47.39976 &#10;L 604.67976 32.99976 &#10;L 604.67976 32.99976 &#10;z&#10;" style="fill:#ffffff;stroke:#ffffff;stroke-linejoin:miter;stroke-width:0.01;"/>
   </g>
   <g id="QuadMesh_1">
    <path clip-path="url(#p5bf75cb1e8)" d="M 593.87976 32.99976 &#10;L 604.67976 32.99976 &#10;L 604.67976 47.39976 &#10;L 593.87976 47.39976 &#10;L 593.87976 32.99976 &#10;" style="fill:#d6efb3;"/>
    <path clip-path="url(#p5bf75cb1e8)" d="M 593.87976 47.39976 &#10;L 604.67976 47.39976 &#10;L 604.67976 61.79976 &#10;L 593.87976 61.79976 &#10;L 593.87976 47.39976 &#10;" style="fill:#a0dab8;"/>
    <path clip-path="url(#p5bf75cb1e8)" d="M 593.87976 61.79976 &#10;L 604.67976 61.79976 &#10;L 604.67976 76.19976 &#10;L 593.87976 76.19976 &#10;L 593.87976 61.79976 &#10;" style="fill:#5fc1c0;"/>
    <path clip-path="url(#p5bf75cb1e8)" d="M 593.87976 76.19976 &#10;L 604.67976 76.19976 &#10;L 604.67976 90.59976 &#10;L 593.87976 90.59976 &#10;L 593.87976 76.19976 &#10;" style="fill:#2fa4c2;"/>
    <path clip-path="url(#p5bf75cb1e8)" d="M 593.87976 90.59976 &#10;L 604.67976 90.59976 &#10;L 604.67976 104.99976 &#10;L 593.87976 104.99976 &#10;L 593.87976 90.59976 &#10;" style="fill:#1f7ab5;"/>
    <path clip-path="url(#p5bf75cb1e8)" d="M 593.87976 104.99976 &#10;L 604.67976 104.99976 &#10;L 604.67976 119.39976 &#10;L 593.87976 119.39976 &#10;L 593.87976 104.99976 &#10;" style="fill:#234da0;"/>
   </g>
   <g id="matplotlib.axis_7"/>
   <g id="matplotlib.axis_8">
    <g id="ytick_9">
     <g id="line2d_26">
      <defs>
       <path d="M 0 0 &#10;L 3.5 0 &#10;" id="m8a56920f93" style="stroke:#000000;stroke-width:0.8;"/>
      </defs>
      <g>
       <use style="stroke:#000000;stroke-width:0.8;" x="604.67976" xlink:href="#m8a56920f93" y="112.19976"/>
      </g>
     </g>
     <g id="text_15">
      <text style="font-family:Arial;font-size:9px;font-stretch:normal;font-style:normal;font-weight:normal;text-anchor:start;" transform="rotate(-0, 611.67976, 115.420776)" x="611.67976" y="115.420776">3.7e-04</text>
     </g>
    </g>
    <g id="ytick_10">
     <g id="line2d_27">
      <g>
       <use style="stroke:#000000;stroke-width:0.8;" x="604.67976" xlink:href="#m8a56920f93" y="97.79976"/>
      </g>
     </g>
     <g id="text_16">
      <text style="font-family:Arial;font-size:9px;font-stretch:normal;font-style:normal;font-weight:normal;text-anchor:start;" transform="rotate(-0, 611.67976, 101.020776)" x="611.67976" y="101.020776">2.4e-04</text>
     </g>
    </g>
    <g id="ytick_11">
     <g id="line2d_28">
      <g>
       <use style="stroke:#000000;stroke-width:0.8;" x="604.67976" xlink:href="#m8a56920f93" y="83.39976"/>
      </g>
     </g>
     <g id="text_17">
      <text style="font-family:Arial;font-size:9px;font-stretch:normal;font-style:normal;font-weight:normal;text-anchor:start;" transform="rotate(-0, 611.67976, 86.620776)" x="611.67976" y="86.620776">1.6e-04</text>
     </g>
    </g>
    <g id="ytick_12">
     <g id="line2d_29">
      <g>
       <use style="stroke:#000000;stroke-width:0.8;" x="604.67976" xlink:href="#m8a56920f93" y="68.99976"/>
      </g>
     </g>
     <g id="text_18">
      <text style="font-family:Arial;font-size:9px;font-stretch:normal;font-style:normal;font-weight:normal;text-anchor:start;" transform="rotate(-0, 611.67976, 72.220776)" x="611.67976" y="72.220776">1.1e-04</text>
     </g>
    </g>
    <g id="ytick_13">
     <g id="line2d_30">
      <g>
       <use style="stroke:#000000;stroke-width:0.8;" x="604.67976" xlink:href="#m8a56920f93" y="54.59976"/>
      </g>
     </g>
     <g id="text_19">
      <text style="font-family:Arial;font-size:9px;font-stretch:normal;font-style:normal;font-weight:normal;text-anchor:start;" transform="rotate(-0, 611.67976, 57.820776)" x="611.67976" y="57.820776">7.4e-05</text>
     </g>
    </g>
    <g id="ytick_14">
     <g id="line2d_31">
      <g>
       <use style="stroke:#000000;stroke-width:0.8;" x="604.67976" xlink:href="#m8a56920f93" y="40.19976"/>
      </g>
     </g>
     <g id="text_20">
      <text style="font-family:Arial;font-size:9px;font-stretch:normal;font-style:normal;font-weight:normal;text-anchor:start;" transform="rotate(-0, 611.67976, 43.420776)" x="611.67976" y="43.420776">5.0e-05</text>
     </g>
    </g>
   </g>
   <g id="LineCollection_1"/>
   <g id="patch_9">
    <path d="M 593.87976 32.99976 &#10;L 593.87976 47.39976 &#10;L 593.87976 104.99976 &#10;L 593.87976 119.39976 &#10;L 604.67976 119.39976 &#10;L 604.67976 104.99976 &#10;L 604.67976 47.39976 &#10;L 604.67976 32.99976 &#10;z&#10;" style="fill:none;"/>
   </g>
   <g id="text_21">
    <text style="font-family:Arial;font-size:9px;font-stretch:normal;font-style:normal;font-weight:normal;text-anchor:middle;" transform="rotate(-0, 599.27976, 26.99976)" x="599.27976" y="26.99976">FDR</text>
   </g>
  </g>
  <g id="axes_5">
   <g id="patch_10">
    <path d="M 587.39976 236.32776 &#10;L 648.95976 236.32776 &#10;L 648.95976 130.57416 &#10;L 587.39976 130.57416 &#10;z&#10;" style="fill:none;"/>
   </g>
   <g id="PathCollection_3">
    <g clip-path="url(#pfaae67891c)">
     <use style="fill:#ffffff;fill-opacity:0.6;stroke:#ffffff;stroke-opacity:0.6;" x="618.17976" xlink:href="#m5ed554e93d" y="183.45096"/>
    </g>
   </g>
   <g id="matplotlib.axis_9">
    <g id="xtick_12"/>
    <g id="xtick_13"/>
    <g id="xtick_14"/>
   </g>
   <g id="matplotlib.axis_10">
    <g id="ytick_15"/>
    <g id="ytick_16"/>
    <g id="ytick_17"/>
    <g id="ytick_18"/>
    <g id="ytick_19"/>
   </g>
  </g>
  <g id="axes_6">
   <g id="PathCollection_4">
    <defs>
     <path d="M 0 7.071068 &#10;C 1.875269 7.071068 3.673985 6.326016 5 5 &#10;C 6.326016 3.673985 7.071068 1.875269 7.071068 0 &#10;C 7.071068 -1.875269 6.326016 -3.673985 5 -5 &#10;C 3.673985 -6.326016 1.875269 -7.071068 0 -7.071068 &#10;C -1.875269 -7.071068 -3.673985 -6.326016 -5 -5 &#10;C -6.326016 -3.673985 -7.071068 -1.875269 -7.071068 0 &#10;C -7.071068 1.875269 -6.326016 3.673985 -5 5 &#10;C -3.673985 6.326016 -1.875269 7.071068 0 7.071068 &#10;z&#10;" id="m9e38ffd111" style="stroke:#b5c2a4;stroke-width:2.2;"/>
    </defs>
    <g clip-path="url(#pbd5305d64b)">
     <use style="fill:#d6efb3;stroke:#b5c2a4;stroke-width:2.2;" x="610.07976" xlink:href="#m9e38ffd111" y="158.368375"/>
    </g>
   </g>
   <g id="PathCollection_5">
    <defs>
     <path d="M 0 10 &#10;C 2.652031 10 5.195799 8.946337 7.071068 7.071068 &#10;C 8.946337 5.195799 10 2.652031 10 0 &#10;C 10 -2.652031 8.946337 -5.195799 7.071068 -7.071068 &#10;C 5.195799 -8.946337 2.652031 -10 0 -10 &#10;C -2.652031 -10 -5.195799 -8.946337 -7.071068 -7.071068 &#10;C -8.946337 -5.195799 -10 -2.652031 -10 0 &#10;C -10 2.652031 -8.946337 5.195799 -7.071068 7.071068 &#10;C -5.195799 8.946337 -2.652031 10 0 10 &#10;z&#10;" id="m63302bbe2e" style="stroke:#b5c2a4;stroke-width:2.2;"/>
    </defs>
    <g clip-path="url(#pbd5305d64b)">
     <use style="fill:#d6efb3;stroke:#b5c2a4;stroke-width:2.2;" x="610.07976" xlink:href="#m63302bbe2e" y="183.617285"/>
    </g>
   </g>
   <g id="PathCollection_6">
    <defs>
     <path d="M 0 12.247449 &#10;C 3.248061 12.247449 6.363528 10.95698 8.660254 8.660254 &#10;C 10.95698 6.363528 12.247449 3.248061 12.247449 0 &#10;C 12.247449 -3.248061 10.95698 -6.363528 8.660254 -8.660254 &#10;C 6.363528 -10.95698 3.248061 -12.247449 0 -12.247449 &#10;C -3.248061 -12.247449 -6.363528 -10.95698 -8.660254 -8.660254 &#10;C -10.95698 -6.363528 -12.247449 -3.248061 -12.247449 0 &#10;C -12.247449 3.248061 -10.95698 6.363528 -8.660254 8.660254 &#10;C -6.363528 10.95698 -3.248061 12.247449 0 12.247449 &#10;z&#10;" id="m0a909f875a" style="stroke:#b5c2a4;stroke-width:2.2;"/>
    </defs>
    <g clip-path="url(#pbd5305d64b)">
     <use style="fill:#d6efb3;stroke:#b5c2a4;stroke-width:2.2;" x="610.07976" xlink:href="#m0a909f875a" y="213.799741"/>
    </g>
   </g>
   <g id="text_22">
    <text style="font-family:Arial;font-size:9px;font-stretch:normal;font-style:normal;font-weight:normal;text-anchor:start;" transform="rotate(-0, 626.27976, 161.824862)" x="626.27976" y="161.824862">18</text>
   </g>
   <g id="text_23">
    <text style="font-family:Arial;font-size:9px;font-stretch:normal;font-style:normal;font-weight:normal;text-anchor:start;" transform="rotate(-0, 626.27976, 187.073772)" x="626.27976" y="187.073772">20</text>
   </g>
   <g id="text_24">
    <text style="font-family:Arial;font-size:9px;font-stretch:normal;font-style:normal;font-weight:normal;text-anchor:start;" transform="rotate(-0, 626.27976, 217.256228)" x="626.27976" y="217.256228">22</text>
   </g>
   <g id="text_25">
    <text style="font-family:Arial;font-size:9px;font-stretch:normal;font-style:normal;font-weight:normal;text-anchor:middle;" transform="rotate(-0, 616.55976, 142.19976)" x="616.55976" y="142.19976">Gene count</text>
   </g>
  </g>
 </g>
 <defs>
  <clipPath id="pa920c06bba">
   <rect height="244.030301" width="376.083389" x="162.778906" y="21.207656"/>
  </clipPath>
  <clipPath id="pdeaf2a8d0d">
   <rect height="244.030301" width="94.020847" x="555.178673" y="21.207656"/>
  </clipPath>
  <clipPath id="pc9e12df3c3">
   <rect height="108" width="64.8" x="587.39976" y="14.99976"/>
  </clipPath>
  <clipPath id="p5bf75cb1e8">
   <rect height="86.4" width="10.8" x="593.87976" y="32.99976"/>
  </clipPath>
  <clipPath id="pfaae67891c">
   <rect height="105.7536" width="61.56" x="587.39976" y="130.57416"/>
  </clipPath>
  <clipPath id="pbd5305d64b">
   <rect height="146.88" width="32.4" x="593.87976" y="148.19976"/>
  </clipPath>
 </defs>
</svg>