<svg id="enrichment_category_graph_svg" height="368.39952pt" version="1.1" viewBox="0 0 659.39976 368.39952" width="659.39976pt" xmlns="http://www.w3.org/2000/svg" xmlns:xlink="http://www.w3.org/1999/xlink">
 <metadata>
  <rdf:rdf xmlns:cc="http://creativecommons.org/ns#" xmlns:dc="http://purl.org/dc/elements/1.1/" xmlns:rdf="http://www.w3.org/1999/02/22-rdf-syntax-ns#">
   <cc:work>
    <dc:type rdf:resource="http://purl.org/dc/dcmitype/StillImage"/>
    <dc:date>2025-08-14T12:49:21.987781</dc:date>
    <dc:format>image/svg+xml</dc:format>
    <dc:creator>
     <cc:agent>
      <dc:title>Matplotlib v3.4.2, https://matplotlib.org/</dc:title>
     </cc:agent>
    </dc:creator>
   </cc:work>
  </rdf:rdf>
 </metadata>
 <defs>
  <style type="text/css">*{stroke-linecap:butt;stroke-linejoin:round;}</style>
 </defs>
 <g id="figure_1">
  <g id="patch_1">
   <path d="M 0 368.39952 &#10;L 659.39976 368.39952 &#10;L 659.39976 0 &#10;L 0 0 &#10;z&#10;" style="fill:none;"/>
  </g>
  <g id="axes_1">
   <g id="patch_2">
    <path d="M 170.28125 337.022801 &#10;L 548.231866 337.022801 &#10;L 548.231866 21.214531 &#10;L 170.28125 21.214531 &#10;z&#10;" style="fill:none;"/>
   </g>
   <g id="matplotlib.axis_1">
    <g id="xtick_1">
     <g id="line2d_1">
      <path clip-path="url(#pacbb124c67)" d="M 225.231961 337.022801 &#10;L 225.231961 21.214531 &#10;" style="fill:none;stroke:#d3d3d3;stroke-dasharray:2.22,0.96;stroke-dashoffset:0;stroke-width:0.6;"/>
     </g>
     <g id="line2d_2"/>
     <g id="text_1">
      <text style="font-family:Arial;font-size:9px;font-stretch:normal;font-style:normal;font-weight:normal;text-anchor:middle;" transform="rotate(-0, 225.231961, 346.964832)" x="225.231961" y="346.964832">3.5</text>
     </g>
    </g>
    <g id="xtick_2">
     <g id="line2d_3">
      <path clip-path="url(#pacbb124c67)" d="M 298.071416 337.022801 &#10;L 298.071416 21.214531 &#10;" style="fill:none;stroke:#d3d3d3;stroke-dasharray:2.22,0.96;stroke-dashoffset:0;stroke-width:0.6;"/>
     </g>
     <g id="line2d_4"/>
     <g id="text_2">
      <text style="font-family:Arial;font-size:9px;font-stretch:normal;font-style:normal;font-weight:normal;text-anchor:middle;" transform="rotate(-0, 298.071416, 346.964832)" x="298.071416" y="346.964832">4.0</text>
     </g>
    </g>
    <g id="xtick_3">
     <g id="line2d_5">
      <path clip-path="url(#pacbb124c67)" d="M 370.910871 337.022801 &#10;L 370.910871 21.214531 &#10;" style="fill:none;stroke:#d3d3d3;stroke-dasharray:2.22,0.96;stroke-dashoffset:0;stroke-width:0.6;"/>
     </g>
     <g id="line2d_6"/>
     <g id="text_3">
      <text style="font-family:Arial;font-size:9px;font-stretch:normal;font-style:normal;font-weight:normal;text-anchor:middle;" transform="rotate(-0, 370.910871, 346.964832)" x="370.910871" y="346.964832">4.5</text>
     </g>
    </g>
    <g id="xtick_4">
     <g id="line2d_7">
      <path clip-path="url(#pacbb124c67)" d="M 443.750326 337.022801 &#10;L 443.750326 21.214531 &#10;" style="fill:none;stroke:#d3d3d3;stroke-dasharray:2.22,0.96;stroke-dashoffset:0;stroke-width:0.6;"/>
     </g>
     <g id="line2d_8"/>
     <g id="text_4">
      <text style="font-family:Arial;font-size:9px;font-stretch:normal;font-style:normal;font-weight:normal;text-anchor:middle;" transform="rotate(-0, 443.750326, 346.964832)" x="443.750326" y="346.964832">5.0</text>
     </g>
    </g>
    <g id="xtick_5">
     <g id="line2d_9">
      <path clip-path="url(#pacbb124c67)" d="M 516.58978 337.022801 &#10;L 516.58978 21.214531 &#10;" style="fill:none;stroke:#d3d3d3;stroke-dasharray:2.22,0.96;stroke-dashoffset:0;stroke-width:0.6;"/>
     </g>
     <g id="line2d_10"/>
     <g id="text_5">
      <text style="font-family:Arial;font-size:9px;font-stretch:normal;font-style:normal;font-weight:normal;text-anchor:middle;" transform="rotate(-0, 516.58978, 346.964832)" x="516.58978" y="346.964832">5.5</text>
     </g>
    </g>
    <g id="text_6">
     <text style="font-family:Arial;font-size:9px;font-stretch:normal;font-style:normal;font-weight:normal;text-anchor:middle;" transform="rotate(-0, 359.256558, 359.305301)" x="359.256558" y="359.305301">Signal</text>
    </g>
   </g>
   <g id="matplotlib.axis_2">
    <g id="ytick_1">
     <g id="line2d_11"/>
     <g id="text_7">
      <text style="font-family:Arial;font-size:9px;font-stretch:normal;font-style:normal;font-weight:normal;text-anchor:end;" transform="rotate(-0, 166.78125, 53.14539)" x="166.78125" y="53.14539">Neutrophil chemotaxis</text>
     </g>
    </g>
    <g id="ytick_2">
     <g id="line2d_12"/>
     <g id="text_8">
      <text style="font-family:Arial;font-size:9px;font-stretch:normal;font-style:normal;font-weight:normal;text-anchor:end;" transform="rotate(-0, 166.78125, 81.855232)" x="166.78125" y="81.855232">Myeloid leukocyte migration</text>
     </g>
    </g>
    <g id="ytick_3">
     <g id="line2d_13"/>
     <g id="text_9">
      <text style="font-family:Arial;font-size:9px;font-stretch:normal;font-style:normal;font-weight:normal;text-anchor:end;" transform="rotate(-0, 166.78125, 110.565075)" x="166.78125" y="110.565075">Cell chemotaxis</text>
     </g>
    </g>
    <g id="ytick_4">
     <g id="line2d_14"/>
     <g id="text_10">
      <text style="font-family:Arial;font-size:9px;font-stretch:normal;font-style:normal;font-weight:normal;text-anchor:end;" transform="rotate(-0, 166.78125, 139.274918)" x="166.78125" y="139.274918">Leukocyte migration</text>
     </g>
    </g>
    <g id="ytick_5">
     <g id="line2d_15"/>
     <g id="text_11">
      <text style="font-family:Arial;font-size:9px;font-stretch:normal;font-style:normal;font-weight:normal;text-anchor:end;" transform="rotate(-0, 166.78125, 168.039604)" x="166.78125" y="168.039604">Inflammatory response</text>
     </g>
    </g>
    <g id="ytick_6">
     <g id="line2d_16"/>
     <g id="text_12">
      <text style="font-family:Arial;font-size:9px;font-stretch:normal;font-style:normal;font-weight:normal;text-anchor:end;" transform="rotate(-0, 166.78125, 196.749447)" x="166.78125" y="196.749447">Chemokine-mediated signaling pathway</text>
     </g>
    </g>
    <g id="ytick_7">
     <g id="line2d_17"/>
     <g id="text_13">
      <text style="font-family:Arial;font-size:9px;font-stretch:normal;font-style:normal;font-weight:normal;text-anchor:end;" transform="rotate(-0, 166.78125, 225.45929)" x="166.78125" y="225.45929">Cytokine-mediated signaling pathway</text>
     </g>
    </g>
    <g id="ytick_8">
     <g id="line2d_18"/>
     <g id="text_14">
      <text style="font-family:Arial;font-size:9px;font-stretch:normal;font-style:normal;font-weight:normal;text-anchor:end;" transform="rotate(-0, 166.78125, 254.127648)" x="166.78125" y="254.127648">Response to interleukin-1</text>
     </g>
    </g>
    <g id="ytick_9">
     <g id="line2d_19"/>
     <g id="text_15">
      <text style="font-family:Arial;font-size:9px;font-stretch:normal;font-style:normal;font-weight:normal;text-anchor:end;" transform="rotate(-0, 166.78125, 282.878975)" x="166.78125" y="282.878975">Cellular response to interleukin-1</text>
     </g>
    </g>
    <g id="ytick_10">
     <g id="line2d_20"/>
     <g id="text_16">
      <text style="font-family:Arial;font-size:9px;font-stretch:normal;font-style:normal;font-weight:normal;text-anchor:end;" transform="rotate(-0, 166.78125, 311.533974)" x="166.78125" y="311.533974">Lymphocyte chemotaxis</text>
     </g>
    </g>
   </g>
   <g id="patch_3">
    <path clip-path="url(#pacbb124c67)" d="M 170.28125 294.532234 &#10;L 548.231866 294.532234 &#10;L 548.231866 320.371092 &#10;L 170.28125 320.371092 &#10;z&#10;" style="fill:#234da0;opacity:0.1;"/>
   </g>
   <g id="patch_4">
    <path clip-path="url(#pacbb124c67)" d="M 170.28125 237.112549 &#10;L 548.231866 237.112549 &#10;L 548.231866 291.66125 &#10;L 170.28125 291.66125 &#10;z&#10;" style="fill:#1f7ab5;opacity:0.1;"/>
   </g>
   <g id="patch_5">
    <path clip-path="url(#pacbb124c67)" d="M 170.28125 208.402706 &#10;L 548.231866 208.402706 &#10;L 548.231866 234.241564 &#10;L 170.28125 234.241564 &#10;z&#10;" style="fill:#5fc1c0;opacity:0.1;"/>
   </g>
   <g id="patch_6">
    <path clip-path="url(#pacbb124c67)" d="M 170.28125 179.692863 &#10;L 548.231866 179.692863 &#10;L 548.231866 205.531722 &#10;L 170.28125 205.531722 &#10;z&#10;" style="fill:#1f7ab5;opacity:0.1;"/>
   </g>
   <g id="patch_7">
    <path clip-path="url(#pacbb124c67)" d="M 170.28125 150.98302 &#10;L 548.231866 150.98302 &#10;L 548.231866 176.821879 &#10;L 170.28125 176.821879 &#10;z&#10;" style="fill:#d6efb3;opacity:0.1;"/>
   </g>
   <g id="patch_8">
    <path clip-path="url(#pacbb124c67)" d="M 170.28125 36.143649 &#10;L 548.231866 36.143649 &#10;L 548.231866 148.112036 &#10;L 170.28125 148.112036 &#10;z&#10;" style="fill:#2fa4c2;opacity:0.1;"/>
   </g>
   <g id="horizontalLine_Process:GO.0030593">
    <path data-original-stroke="grey" clip-path="url(#pacbb124c67)" d="M 170.28125 49.924374 &#10;L 528.244093 49.924374 &#10;" style="fill:none;stroke:#2fa4c2;stroke-linecap:square;stroke-width:3;"/>
   </g>
   <g id="horizontalLine_Process:GO.0097529">
    <path data-original-stroke="grey" clip-path="url(#pacbb124c67)" d="M 170.28125 78.634217 &#10;L 398.589864 78.634217 &#10;" style="fill:none;stroke:#2fa4c2;stroke-linecap:square;stroke-width:3;"/>
   </g>
   <g id="horizontalLine_Process:GO.0060326">
    <path data-original-stroke="grey" clip-path="url(#pacbb124c67)" d="M 170.28125 107.344059 &#10;L 343.231878 107.344059 &#10;" style="fill:none;stroke:#2fa4c2;stroke-linecap:square;stroke-width:3;"/>
   </g>
   <g id="horizontalLine_Process:GO.0050900">
    <path data-original-stroke="grey" clip-path="url(#pacbb124c67)" d="M 170.28125 136.053902 &#10;L 282.046736 136.053902 &#10;" style="fill:none;stroke:#2fa4c2;stroke-linecap:square;stroke-width:3;"/>
   </g>
   <g id="horizontalLine_Process:GO.0006954">
    <path data-original-stroke="grey" clip-path="url(#pacbb124c67)" d="M 170.28125 164.763745 &#10;L 411.700965 164.763745 &#10;" style="fill:none;stroke:#d6efb3;stroke-linecap:square;stroke-width:3;"/>
   </g>
   <g id="horizontalLine_Process:GO.0070098">
    <path data-original-stroke="grey" clip-path="url(#pacbb124c67)" d="M 170.28125 193.473588 &#10;L 381.108394 193.473588 &#10;" style="fill:none;stroke:#1f7ab5;stroke-linecap:square;stroke-width:3;"/>
   </g>
   <g id="horizontalLine_Process:GO.0019221">
    <path data-original-stroke="grey" clip-path="url(#pacbb124c67)" d="M 170.28125 222.18343 &#10;L 314.096096 222.18343 &#10;" style="fill:none;stroke:#5fc1c0;stroke-linecap:square;stroke-width:3;"/>
   </g>
   <g id="horizontalLine_Process:GO.0070555">
    <path data-original-stroke="grey" clip-path="url(#pacbb124c67)" d="M 170.28125 250.893273 &#10;L 255.824532 250.893273 &#10;" style="fill:none;stroke:#1f7ab5;stroke-linecap:square;stroke-width:3;"/>
   </g>
   <g id="horizontalLine_Process:GO.0071347">
    <path data-original-stroke="grey" clip-path="url(#pacbb124c67)" d="M 170.28125 279.603116 &#10;L 194.63939 279.603116 &#10;" style="fill:none;stroke:#234da0;stroke-linecap:square;stroke-width:3;"/>
   </g>
   <g id="horizontalLine_Process:GO.0048247">
    <path data-original-stroke="grey" clip-path="url(#pacbb124c67)" d="M 170.28125 308.312959 &#10;L 190.269023 308.312959 &#10;" style="fill:none;stroke:#234da0;stroke-linecap:square;stroke-width:3;"/>
   </g>
   <g id="line2d_21">
    <path clip-path="url(#pacbb124c67)" d="M 170.28125 49.924374 &#10;L 528.244093 49.924374 &#10;" style="fill:none;stroke:#ffffff;stroke-linecap:square;stroke-opacity:0.4;stroke-width:3;"/>
   </g>
   <g id="line2d_22">
    <path clip-path="url(#pacbb124c67)" d="M 170.28125 78.634217 &#10;L 398.589864 78.634217 &#10;" style="fill:none;stroke:#ffffff;stroke-linecap:square;stroke-opacity:0.4;stroke-width:3;"/>
   </g>
   <g id="line2d_23">
    <path clip-path="url(#pacbb124c67)" d="M 170.28125 107.344059 &#10;L 343.231878 107.344059 &#10;" style="fill:none;stroke:#ffffff;stroke-linecap:square;stroke-opacity:0.4;stroke-width:3;"/>
   </g>
   <g id="line2d_24">
    <path clip-path="url(#pacbb124c67)" d="M 170.28125 136.053902 &#10;L 282.046736 136.053902 &#10;" style="fill:none;stroke:#ffffff;stroke-linecap:square;stroke-opacity:0.4;stroke-width:3;"/>
   </g>
   <g id="line2d_25">
    <path clip-path="url(#pacbb124c67)" d="M 170.28125 164.763745 &#10;L 411.700965 164.763745 &#10;" style="fill:none;stroke:#ffffff;stroke-linecap:square;stroke-opacity:0.4;stroke-width:3;"/>
   </g>
   <g id="line2d_26">
    <path clip-path="url(#pacbb124c67)" d="M 170.28125 193.473588 &#10;L 381.108394 193.473588 &#10;" style="fill:none;stroke:#ffffff;stroke-linecap:square;stroke-opacity:0.4;stroke-width:3;"/>
   </g>
   <g id="line2d_27">
    <path clip-path="url(#pacbb124c67)" d="M 170.28125 222.18343 &#10;L 314.096096 222.18343 &#10;" style="fill:none;stroke:#ffffff;stroke-linecap:square;stroke-opacity:0.4;stroke-width:3;"/>
   </g>
   <g id="line2d_28">
    <path clip-path="url(#pacbb124c67)" d="M 170.28125 250.893273 &#10;L 255.824532 250.893273 &#10;" style="fill:none;stroke:#ffffff;stroke-linecap:square;stroke-opacity:0.4;stroke-width:3;"/>
   </g>
   <g id="line2d_29">
    <path clip-path="url(#pacbb124c67)" d="M 170.28125 279.603116 &#10;L 194.63939 279.603116 &#10;" style="fill:none;stroke:#ffffff;stroke-linecap:square;stroke-opacity:0.4;stroke-width:3;"/>
   </g>
   <g id="line2d_30">
    <path clip-path="url(#pacbb124c67)" d="M 170.28125 308.312959 &#10;L 190.269023 308.312959 &#10;" style="fill:none;stroke:#ffffff;stroke-linecap:square;stroke-opacity:0.4;stroke-width:3;"/>
   </g>
   <g id="dots_plot">
    <path id="circle_Process:GO.0030593" data-original-stroke="grey" clip-path="url(#pacbb124c67)" d="M 528.244093 58.647158 &#10;C 530.557402 58.647158 532.776276 57.72807 534.412033 56.092314 &#10;C 536.047789 54.456557 536.966877 52.237683 536.966877 49.924374 &#10;C 536.966877 47.611065 536.047789 45.392191 534.412033 43.756434 &#10;C 532.776276 42.120678 530.557402 41.20159 528.244093 41.20159 &#10;C 525.930784 41.20159 523.71191 42.120678 522.076153 43.756434 &#10;C 520.440397 45.392191 519.521309 47.611065 519.521309 49.924374 &#10;C 519.521309 52.237683 520.440397 54.456557 522.076153 56.092314 &#10;C 523.71191 57.72807 525.930784 58.647158 528.244093 58.647158 &#10;z&#10;" style="fill:#2fa4c2;stroke:#2fa4c2;stroke-width:2.2;"/>
    <path id="circle_Process:GO.0097529" data-original-stroke="grey" clip-path="url(#pacbb124c67)" d="M 398.589864 87.602761 &#10;C 400.968349 87.602761 403.249739 86.657778 404.931582 84.975935 &#10;C 406.613425 83.294092 407.558408 81.012702 407.558408 78.634217 &#10;C 407.558408 76.255731 406.613425 73.974342 404.931582 72.292498 &#10;C 403.249739 70.610655 400.968349 69.665673 398.589864 69.665673 &#10;C 396.211378 69.665673 393.929989 70.610655 392.248145 72.292498 &#10;C 390.566302 73.974342 389.62132 76.255731 389.62132 78.634217 &#10;C 389.62132 81.012702 390.566302 83.294092 392.248145 84.975935 &#10;C 393.929989 86.657778 396.211378 87.602761 398.589864 87.602761 &#10;z&#10;" style="fill:#2fa4c2;stroke:#2fa4c2;stroke-width:2.2;"/>
    <path id="circle_Process:GO.0060326" data-original-stroke="grey" clip-path="url(#pacbb124c67)" d="M 343.231878 116.784951 &#10;C 345.735632 116.784951 348.137175 115.790199 349.907596 114.019778 &#10;C 351.678018 112.249357 352.67277 109.847813 352.67277 107.344059 &#10;C 352.67277 104.840306 351.678018 102.438762 349.907596 100.668341 &#10;C 348.137175 98.89792 345.735632 97.903168 343.231878 97.903168 &#10;C 340.728124 97.903168 338.326581 98.89792 336.556159 100.668341 &#10;C 334.785738 102.438762 333.790986 104.840306 333.790986 107.344059 &#10;C 333.790986 109.847813 334.785738 112.249357 336.556159 114.019778 &#10;C 338.326581 115.790199 340.728124 116.784951 343.231878 116.784951 &#10;z&#10;" style="fill:#2fa4c2;stroke:#2fa4c2;stroke-width:2.2;"/>
    <path id="circle_Process:GO.0050900" data-original-stroke="grey" clip-path="url(#pacbb124c67)" d="M 282.046736 145.494794 &#10;C 284.55049 145.494794 286.952033 144.500042 288.722454 142.729621 &#10;C 290.492876 140.959199 291.487628 138.557656 291.487628 136.053902 &#10;C 291.487628 133.550148 290.492876 131.148605 288.722454 129.378184 &#10;C 286.952033 127.607762 284.55049 126.613011 282.046736 126.613011 &#10;C 279.542982 126.613011 277.141439 127.607762 275.371017 129.378184 &#10;C 273.600596 131.148605 272.605844 133.550148 272.605844 136.053902 &#10;C 272.605844 138.557656 273.600596 140.959199 275.371017 142.729621 &#10;C 277.141439 144.500042 279.542982 145.494794 282.046736 145.494794 &#10;z&#10;" style="fill:#2fa4c2;stroke:#2fa4c2;stroke-width:2.2;"/>
    <path id="circle_Process:GO.0006954" data-original-stroke="grey" clip-path="url(#pacbb124c67)" d="M 411.700965 177.011194 &#10;C 414.949027 177.011194 418.064493 175.720725 420.361219 173.423999 &#10;C 422.657946 171.127273 423.948414 168.011806 423.948414 164.763745 &#10;C 423.948414 161.515684 422.657946 158.400217 420.361219 156.103491 &#10;C 418.064493 153.806765 414.949027 152.516296 411.700965 152.516296 &#10;C 408.452904 152.516296 405.337438 153.806765 403.040711 156.103491 &#10;C 400.743985 158.400217 399.453517 161.515684 399.453517 164.763745 &#10;C 399.453517 168.011806 400.743985 171.127273 403.040711 173.423999 &#10;C 405.337438 175.720725 408.452904 177.011194 411.700965 177.011194 &#10;z&#10;" style="fill:#d6efb3;stroke:#d6efb3;stroke-width:2.2;"/>
    <path id="circle_Process:GO.0070098" data-original-stroke="grey" clip-path="url(#pacbb124c67)" d="M 381.108394 201.682808 &#10;C 383.285505 201.682808 385.37374 200.817833 386.91319 199.278383 &#10;C 388.45264 197.738933 389.317615 195.650698 389.317615 193.473588 &#10;C 389.317615 191.296477 388.45264 189.208242 386.91319 187.668792 &#10;C 385.37374 186.129342 383.285505 185.264367 381.108394 185.264367 &#10;C 378.931284 185.264367 376.843049 186.129342 375.303599 187.668792 &#10;C 373.764149 189.208242 372.899174 191.296477 372.899174 193.473588 &#10;C 372.899174 195.650698 373.764149 197.738933 375.303599 199.278383 &#10;C 376.843049 200.817833 378.931284 201.682808 381.108394 201.682808 &#10;z&#10;" style="fill:#1f7ab5;stroke:#1f7ab5;stroke-width:2.2;"/>
    <path id="circle_Process:GO.0019221" data-original-stroke="grey" clip-path="url(#pacbb124c67)" d="M 314.096096 232.712892 &#10;C 316.888542 232.712892 319.566992 231.603442 321.54155 229.628884 &#10;C 323.516107 227.654327 324.625558 224.975876 324.625558 222.18343 &#10;C 324.625558 219.390984 323.516107 216.712534 321.54155 214.737977 &#10;C 319.566992 212.763419 316.888542 211.653969 314.096096 211.653969 &#10;C 311.30365 211.653969 308.6252 212.763419 306.650642 214.737977 &#10;C 304.676085 216.712534 303.566634 219.390984 303.566634 222.18343 &#10;C 303.566634 224.975876 304.676085 227.654327 306.650642 229.628884 &#10;C 308.6252 231.603442 311.30365 232.712892 314.096096 232.712892 &#10;z&#10;" style="fill:#5fc1c0;stroke:#5fc1c0;stroke-width:2.2;"/>
    <path id="circle_Process:GO.0070555" data-original-stroke="grey" clip-path="url(#pacbb124c67)" d="M 255.824532 259.102494 &#10;C 258.001643 259.102494 260.089878 258.237518 261.629328 256.698069 &#10;C 263.168778 255.158619 264.033753 253.070384 264.033753 250.893273 &#10;C 264.033753 248.716162 263.168778 246.627927 261.629328 245.088477 &#10;C 260.089878 243.549028 258.001643 242.684052 255.824532 242.684052 &#10;C 253.647421 242.684052 251.559186 243.549028 250.019737 245.088477 &#10;C 248.480287 246.627927 247.615312 248.716162 247.615312 250.893273 &#10;C 247.615312 253.070384 248.480287 255.158619 250.019737 256.698069 &#10;C 251.559186 258.237518 253.647421 259.102494 255.824532 259.102494 &#10;z&#10;" style="fill:#1f7ab5;stroke:#1f7ab5;stroke-width:2.2;"/>
    <path id="circle_Process:GO.0071347" data-original-stroke="grey" clip-path="url(#pacbb124c67)" d="M 194.63939 287.264425 &#10;C 196.671193 287.264425 198.620052 286.457181 200.056754 285.020479 &#10;C 201.493455 283.583778 202.300699 281.634919 202.300699 279.603116 &#10;C 202.300699 277.571313 201.493455 275.622454 200.056754 274.185752 &#10;C 198.620052 272.749051 196.671193 271.941807 194.63939 271.941807 &#10;C 192.607587 271.941807 190.658728 272.749051 189.222027 274.185752 &#10;C 187.785325 275.622454 186.978081 277.571313 186.978081 279.603116 &#10;C 186.978081 281.634919 187.785325 283.583778 189.222027 285.020479 &#10;C 190.658728 286.457181 192.607587 287.264425 194.63939 287.264425 &#10;z&#10;" style="fill:#234da0;stroke:#234da0;stroke-width:2.2;"/>
    <path id="circle_Process:GO.0048247" data-original-stroke="grey" clip-path="url(#pacbb124c67)" d="M 190.269023 315.384026 &#10;C 192.144292 315.384026 193.943007 314.638974 195.269023 313.312959 &#10;C 196.595038 311.986943 197.340091 310.188228 197.340091 308.312959 &#10;C 197.340091 306.437689 196.595038 304.638974 195.269023 303.312959 &#10;C 193.943007 301.986943 192.144292 301.241891 190.269023 301.241891 &#10;C 188.393754 301.241891 186.595038 301.986943 185.269023 303.312959 &#10;C 183.943007 304.638974 183.197955 306.437689 183.197955 308.312959 &#10;C 183.197955 310.188228 183.943007 311.986943 185.269023 313.312959 &#10;C 186.595038 314.638974 188.393754 315.384026 190.269023 315.384026 &#10;z&#10;" style="fill:#234da0;stroke:#234da0;stroke-width:2.2;"/>
   </g>
   <g id="PathCollection_1">
    <path clip-path="url(#pacbb124c67)" d="M 528.244093 58.647158 &#10;C 530.557402 58.647158 532.776276 57.72807 534.412033 56.092314 &#10;C 536.047789 54.456557 536.966877 52.237683 536.966877 49.924374 &#10;C 536.966877 47.611065 536.047789 45.392191 534.412033 43.756434 &#10;C 532.776276 42.120678 530.557402 41.20159 528.244093 41.20159 &#10;C 525.930784 41.20159 523.71191 42.120678 522.076153 43.756434 &#10;C 520.440397 45.392191 519.521309 47.611065 519.521309 49.924374 &#10;C 519.521309 52.237683 520.440397 54.456557 522.076153 56.092314 &#10;C 523.71191 57.72807 525.930784 58.647158 528.244093 58.647158 &#10;z&#10;" style="fill:none;stroke:#808080;stroke-opacity:0.45;stroke-width:2.2;"/>
    <path clip-path="url(#pacbb124c67)" d="M 398.589864 87.602761 &#10;C 400.968349 87.602761 403.249739 86.657778 404.931582 84.975935 &#10;C 406.613425 83.294092 407.558408 81.012702 407.558408 78.634217 &#10;C 407.558408 76.255731 406.613425 73.974342 404.931582 72.292498 &#10;C 403.249739 70.610655 400.968349 69.665673 398.589864 69.665673 &#10;C 396.211378 69.665673 393.929989 70.610655 392.248145 72.292498 &#10;C 390.566302 73.974342 389.62132 76.255731 389.62132 78.634217 &#10;C 389.62132 81.012702 390.566302 83.294092 392.248145 84.975935 &#10;C 393.929989 86.657778 396.211378 87.602761 398.589864 87.602761 &#10;z&#10;" style="fill:none;stroke:#808080;stroke-opacity:0.45;stroke-width:2.2;"/>
    <path clip-path="url(#pacbb124c67)" d="M 343.231878 116.784951 &#10;C 345.735632 116.784951 348.137175 115.790199 349.907596 114.019778 &#10;C 351.678018 112.249357 352.67277 109.847813 352.67277 107.344059 &#10;C 352.67277 104.840306 351.678018 102.438762 349.907596 100.668341 &#10;C 348.137175 98.89792 345.735632 97.903168 343.231878 97.903168 &#10;C 340.728124 97.903168 338.326581 98.89792 336.556159 100.668341 &#10;C 334.785738 102.438762 333.790986 104.840306 333.790986 107.344059 &#10;C 333.790986 109.847813 334.785738 112.249357 336.556159 114.019778 &#10;C 338.326581 115.790199 340.728124 116.784951 343.231878 116.784951 &#10;z&#10;" style="fill:none;stroke:#808080;stroke-opacity:0.45;stroke-width:2.2;"/>
    <path clip-path="url(#pacbb124c67)" d="M 282.046736 145.494794 &#10;C 284.55049 145.494794 286.952033 144.500042 288.722454 142.729621 &#10;C 290.492876 140.959199 291.487628 138.557656 291.487628 136.053902 &#10;C 291.487628 133.550148 290.492876 131.148605 288.722454 129.378184 &#10;C 286.952033 127.607762 284.55049 126.613011 282.046736 126.613011 &#10;C 279.542982 126.613011 277.141439 127.607762 275.371017 129.378184 &#10;C 273.600596 131.148605 272.605844 133.550148 272.605844 136.053902 &#10;C 272.605844 138.557656 273.600596 140.959199 275.371017 142.729621 &#10;C 277.141439 144.500042 279.542982 145.494794 282.046736 145.494794 &#10;z&#10;" style="fill:none;stroke:#808080;stroke-opacity:0.45;stroke-width:2.2;"/>
    <path clip-path="url(#pacbb124c67)" d="M 411.700965 177.011194 &#10;C 414.949027 177.011194 418.064493 175.720725 420.361219 173.423999 &#10;C 422.657946 171.127273 423.948414 168.011806 423.948414 164.763745 &#10;C 423.948414 161.515684 422.657946 158.400217 420.361219 156.103491 &#10;C 418.064493 153.806765 414.949027 152.516296 411.700965 152.516296 &#10;C 408.452904 152.516296 405.337438 153.806765 403.040711 156.103491 &#10;C 400.743985 158.400217 399.453517 161.515684 399.453517 164.763745 &#10;C 399.453517 168.011806 400.743985 171.127273 403.040711 173.423999 &#10;C 405.337438 175.720725 408.452904 177.011194 411.700965 177.011194 &#10;z&#10;" style="fill:none;stroke:#808080;stroke-opacity:0.45;stroke-width:2.2;"/>
    <path clip-path="url(#pacbb124c67)" d="M 381.108394 201.682808 &#10;C 383.285505 201.682808 385.37374 200.817833 386.91319 199.278383 &#10;C 388.45264 197.738933 389.317615 195.650698 389.317615 193.473588 &#10;C 389.317615 191.296477 388.45264 189.208242 386.91319 187.668792 &#10;C 385.37374 186.129342 383.285505 185.264367 381.108394 185.264367 &#10;C 378.931284 185.264367 376.843049 186.129342 375.303599 187.668792 &#10;C 373.764149 189.208242 372.899174 191.296477 372.899174 193.473588 &#10;C 372.899174 195.650698 373.764149 197.738933 375.303599 199.278383 &#10;C 376.843049 200.817833 378.931284 201.682808 381.108394 201.682808 &#10;z&#10;" style="fill:none;stroke:#808080;stroke-opacity:0.45;stroke-width:2.2;"/>
    <path clip-path="url(#pacbb124c67)" d="M 314.096096 232.712892 &#10;C 316.888542 232.712892 319.566992 231.603442 321.54155 229.628884 &#10;C 323.516107 227.654327 324.625558 224.975876 324.625558 222.18343 &#10;C 324.625558 219.390984 323.516107 216.712534 321.54155 214.737977 &#10;C 319.566992 212.763419 316.888542 211.653969 314.096096 211.653969 &#10;C 311.30365 211.653969 308.6252 212.763419 306.650642 214.737977 &#10;C 304.676085 216.712534 303.566634 219.390984 303.566634 222.18343 &#10;C 303.566634 224.975876 304.676085 227.654327 306.650642 229.628884 &#10;C 308.6252 231.603442 311.30365 232.712892 314.096096 232.712892 &#10;z&#10;" style="fill:none;stroke:#808080;stroke-opacity:0.45;stroke-width:2.2;"/>
    <path clip-path="url(#pacbb124c67)" d="M 255.824532 259.102494 &#10;C 258.001643 259.102494 260.089878 258.237518 261.629328 256.698069 &#10;C 263.168778 255.158619 264.033753 253.070384 264.033753 250.893273 &#10;C 264.033753 248.716162 263.168778 246.627927 261.629328 245.088477 &#10;C 260.089878 243.549028 258.001643 242.684052 255.824532 242.684052 &#10;C 253.647421 242.684052 251.559186 243.549028 250.019737 245.088477 &#10;C 248.480287 246.627927 247.615312 248.716162 247.615312 250.893273 &#10;C 247.615312 253.070384 248.480287 255.158619 250.019737 256.698069 &#10;C 251.559186 258.237518 253.647421 259.102494 255.824532 259.102494 &#10;z&#10;" style="fill:none;stroke:#808080;stroke-opacity:0.45;stroke-width:2.2;"/>
    <path clip-path="url(#pacbb124c67)" d="M 194.63939 287.264425 &#10;C 196.671193 287.264425 198.620052 286.457181 200.056754 285.020479 &#10;C 201.493455 283.583778 202.300699 281.634919 202.300699 279.603116 &#10;C 202.300699 277.571313 201.493455 275.622454 200.056754 274.185752 &#10;C 198.620052 272.749051 196.671193 271.941807 194.63939 271.941807 &#10;C 192.607587 271.941807 190.658728 272.749051 189.222027 274.185752 &#10;C 187.785325 275.622454 186.978081 277.571313 186.978081 279.603116 &#10;C 186.978081 281.634919 187.785325 283.583778 189.222027 285.020479 &#10;C 190.658728 286.457181 192.607587 287.264425 194.63939 287.264425 &#10;z&#10;" style="fill:none;stroke:#808080;stroke-opacity:0.45;stroke-width:2.2;"/>
    <path clip-path="url(#pacbb124c67)" d="M 190.269023 315.384026 &#10;C 192.144292 315.384026 193.943007 314.638974 195.269023 313.312959 &#10;C 196.595038 311.986943 197.340091 310.188228 197.340091 308.312959 &#10;C 197.340091 306.437689 196.595038 304.638974 195.269023 303.312959 &#10;C 193.943007 301.986943 192.144292 301.241891 190.269023 301.241891 &#10;C 188.393754 301.241891 186.595038 301.986943 185.269023 303.312959 &#10;C 183.943007 304.638974 183.197955 306.437689 183.197955 308.312959 &#10;C 183.197955 310.188228 183.943007 311.986943 185.269023 313.312959 &#10;C 186.595038 314.638974 188.393754 315.384026 190.269023 315.384026 &#10;z&#10;" style="fill:none;stroke:#808080;stroke-opacity:0.45;stroke-width:2.2;"/>
   </g>
   <g id="text_17">
    <text style="font-family:Arial;font-size:11px;font-stretch:normal;font-style:normal;font-weight:normal;text-anchor:middle;" transform="rotate(-0, 359.256558, 15.214531)" x="359.256558" y="15.214531">Biological Process (Gene Ontology) enrichment</text>
   </g>
   <g id="line2d_31">
    <path clip-path="url(#pacbb124c67)" d="M 528.244093 44.15744 &#10;L 528.244093 55.691308 &#10;" style="fill:none;stroke:#808080;stroke-dasharray:1.85,0.8;stroke-dashoffset:0;stroke-width:0.5;"/>
   </g>
   <g id="line2d_32">
    <path clip-path="url(#pacbb124c67)" d="M 398.589864 72.537744 &#10;L 398.589864 84.730689 &#10;" style="fill:none;stroke:#808080;stroke-dasharray:1.85,0.8;stroke-dashoffset:0;stroke-width:0.5;"/>
   </g>
   <g id="line2d_33">
    <path clip-path="url(#pacbb124c67)" d="M 343.231878 100.588509 &#10;L 343.231878 114.09961 &#10;" style="fill:none;stroke:#808080;stroke-dasharray:1.85,0.8;stroke-dashoffset:0;stroke-width:0.5;"/>
   </g>
   <g id="line2d_34">
    <path clip-path="url(#pacbb124c67)" d="M 282.046736 129.298351 &#10;L 282.046736 142.809453 &#10;" style="fill:none;stroke:#808080;stroke-dasharray:1.85,0.8;stroke-dashoffset:0;stroke-width:0.5;"/>
   </g>
   <g id="line2d_35">
    <path clip-path="url(#pacbb124c67)" d="M 411.700965 153.394647 &#10;L 411.700965 176.132843 &#10;" style="fill:none;stroke:#808080;stroke-dasharray:1.85,0.8;stroke-dashoffset:0;stroke-width:0.5;"/>
   </g>
   <g id="line2d_36">
    <path clip-path="url(#pacbb124c67)" d="M 381.108394 188.365732 &#10;L 381.108394 198.581443 &#10;" style="fill:none;stroke:#808080;stroke-dasharray:1.85,0.8;stroke-dashoffset:0;stroke-width:0.5;"/>
   </g>
   <g id="line2d_37">
    <path clip-path="url(#pacbb124c67)" d="M 314.096096 213.780184 &#10;L 314.096096 230.586676 &#10;" style="fill:none;stroke:#808080;stroke-dasharray:1.85,0.8;stroke-dashoffset:0;stroke-width:0.5;"/>
   </g>
   <g id="line2d_38">
    <path clip-path="url(#pacbb124c67)" d="M 255.824532 245.785418 &#10;L 255.824532 256.001129 &#10;" style="fill:none;stroke:#808080;stroke-dasharray:1.85,0.8;stroke-dashoffset:0;stroke-width:0.5;"/>
   </g>
   <g id="line2d_39">
    <path clip-path="url(#pacbb124c67)" d="M 194.63939 275.154338 &#10;L 194.63939 284.051893 &#10;" style="fill:none;stroke:#808080;stroke-dasharray:1.85,0.8;stroke-dashoffset:0;stroke-width:0.5;"/>
   </g>
   <g id="line2d_40">
    <path clip-path="url(#pacbb124c67)" d="M 190.269023 304.523259 &#10;L 190.269023 312.102658 &#10;" style="fill:none;stroke:#808080;stroke-dasharray:1.85,0.8;stroke-dashoffset:0;stroke-width:0.5;"/>
   </g>
   <g id="invisibleRectangle_Process:GO.0048247" style="cursor: pointer;">
    <path clip-path="url(#pacbb124c67)" d="M 170.28125 294.532234 &#10;L 548.231866 294.532234 &#10;L 548.231866 320.371092 &#10;L 170.28125 320.371092 &#10;z&#10;" style="fill:#ffffff;opacity:0.01;"/>
   </g>
   <g id="invisibleRectangle_Process:GO.0071347" style="cursor: pointer;">
    <path clip-path="url(#pacbb124c67)" d="M 170.28125 265.822391 &#10;L 548.231866 265.822391 &#10;L 548.231866 291.66125 &#10;L 170.28125 291.66125 &#10;z&#10;" style="fill:#ffffff;opacity:0.01;"/>
   </g>
   <g id="invisibleRectangle_Process:GO.0070555" style="cursor: pointer;">
    <path clip-path="url(#pacbb124c67)" d="M 170.28125 237.112549 &#10;L 548.231866 237.112549 &#10;L 548.231866 262.951407 &#10;L 170.28125 262.951407 &#10;z&#10;" style="fill:#ffffff;opacity:0.01;"/>
   </g>
   <g id="invisibleRectangle_Process:GO.0019221" style="cursor: pointer;">
    <path clip-path="url(#pacbb124c67)" d="M 170.28125 208.402706 &#10;L 548.231866 208.402706 &#10;L 548.231866 234.241564 &#10;L 170.28125 234.241564 &#10;z&#10;" style="fill:#ffffff;opacity:0.01;"/>
   </g>
   <g id="invisibleRectangle_Process:GO.0070098" style="cursor: pointer;">
    <path clip-path="url(#pacbb124c67)" d="M 170.28125 179.692863 &#10;L 548.231866 179.692863 &#10;L 548.231866 205.531722 &#10;L 170.28125 205.531722 &#10;z&#10;" style="fill:#ffffff;opacity:0.01;"/>
   </g>
   <g id="invisibleRectangle_Process:GO.0006954" style="cursor: pointer;">
    <path clip-path="url(#pacbb124c67)" d="M 170.28125 150.98302 &#10;L 548.231866 150.98302 &#10;L 548.231866 176.821879 &#10;L 170.28125 176.821879 &#10;z&#10;" style="fill:#ffffff;opacity:0.01;"/>
   </g>
   <g id="invisibleRectangle_Process:GO.0050900" style="cursor: pointer;">
    <path clip-path="url(#pacbb124c67)" d="M 170.28125 122.273178 &#10;L 548.231866 122.273178 &#10;L 548.231866 148.112036 &#10;L 170.28125 148.112036 &#10;z&#10;" style="fill:#ffffff;opacity:0.01;"/>
   </g>
   <g id="invisibleRectangle_Process:GO.0060326" style="cursor: pointer;">
    <path clip-path="url(#pacbb124c67)" d="M 170.28125 93.563335 &#10;L 548.231866 93.563335 &#10;L 548.231866 119.402193 &#10;L 170.28125 119.402193 &#10;z&#10;" style="fill:#ffffff;opacity:0.01;"/>
   </g>
   <g id="invisibleRectangle_Process:GO.0097529" style="cursor: pointer;">
    <path clip-path="url(#pacbb124c67)" d="M 170.28125 64.853492 &#10;L 548.231866 64.853492 &#10;L 548.231866 90.692351 &#10;L 170.28125 90.692351 &#10;z&#10;" style="fill:#ffffff;opacity:0.01;"/>
   </g>
   <g id="invisibleRectangle_Process:GO.0030593" style="cursor: pointer;">
    <path clip-path="url(#pacbb124c67)" d="M 170.28125 36.143649 &#10;L 548.231866 36.143649 &#10;L 548.231866 61.982508 &#10;L 170.28125 61.982508 &#10;z&#10;" style="fill:#ffffff;opacity:0.01;"/>
   </g>
  </g>
  <g id="axes_2">
   <g id="patch_9">
    <path d="M 554.711866 337.022801 &#10;L 649.19952 337.022801 &#10;L 649.19952 21.214531 &#10;L 554.711866 21.214531 &#10;z&#10;" style="fill:none;"/>
   </g>
   <g id="patch_10">
    <path clip-path="url(#p2edfaf3112)" d="M 554.711866 320.514642 &#10;L 566.522823 320.514642 &#10;L 566.522823 294.388685 &#10;L 554.711866 294.388685 &#10;z&#10;" style="fill:#234da0;"/>
   </g>
   <g id="patch_11">
    <path clip-path="url(#p2edfaf3112)" d="M 554.711866 291.804799 &#10;L 566.522823 291.804799 &#10;L 566.522823 236.968999 &#10;L 554.711866 236.968999 &#10;z&#10;" style="fill:#1f7ab5;"/>
   </g>
   <g id="patch_12">
    <path clip-path="url(#p2edfaf3112)" d="M 554.711866 234.385113 &#10;L 566.522823 234.385113 &#10;L 566.522823 208.259157 &#10;L 554.711866 208.259157 &#10;z&#10;" style="fill:#5fc1c0;"/>
   </g>
   <g id="patch_13">
    <path clip-path="url(#p2edfaf3112)" d="M 554.711866 205.675271 &#10;L 566.522823 205.675271 &#10;L 566.522823 179.549314 &#10;L 554.711866 179.549314 &#10;z&#10;" style="fill:#1f7ab5;"/>
   </g>
   <g id="patch_14">
    <path clip-path="url(#p2edfaf3112)" d="M 554.711866 176.965428 &#10;L 566.522823 176.965428 &#10;L 566.522823 150.839471 &#10;L 554.711866 150.839471 &#10;z&#10;" style="fill:#d6efb3;"/>
   </g>
   <g id="patch_15">
    <path clip-path="url(#p2edfaf3112)" d="M 554.711866 148.255585 &#10;L 566.522823 148.255585 &#10;L 566.522823 36.0001 &#10;L 554.711866 36.0001 &#10;z&#10;" style="fill:#2fa4c2;"/>
   </g>
   <g id="matplotlib.axis_3"/>
   <g id="matplotlib.axis_4"/>
   <g id="text_18">
    <text style="font-family:Arial;font-size:9px;font-stretch:normal;font-style:normal;font-weight:normal;" transform="translate(580.662529 222.384125)rotate(-90)">Groups at similarity 0.8</text>
   </g>
  </g>
  <g id="axes_3">
   <g id="patch_16">
    <path d="M 587.39976 130.19976 &#10;L 652.19976 130.19976 &#10;L 652.19976 22.19976 &#10;L 587.39976 22.19976 &#10;z&#10;" style="fill:none;"/>
   </g>
   <g id="PathCollection_2">
    <defs>
     <path d="M -70.710678 70.710678 &#10;L 70.710678 70.710678 &#10;L 70.710678 -70.710678 &#10;L -70.710678 -70.710678 &#10;z&#10;" id="m89750b383e" style="stroke:#ffffff;stroke-opacity:0.6;"/>
    </defs>
    <g clip-path="url(#pf804676a2a)">
     <use style="fill:#ffffff;fill-opacity:0.6;stroke:#ffffff;stroke-opacity:0.6;" x="619.79976" xlink:href="#m89750b383e" y="76.19976"/>
    </g>
   </g>
   <g id="matplotlib.axis_5">
    <g id="xtick_6"/>
    <g id="xtick_7"/>
    <g id="xtick_8"/>
   </g>
   <g id="matplotlib.axis_6">
    <g id="ytick_11"/>
    <g id="ytick_12"/>
    <g id="ytick_13"/>
    <g id="ytick_14"/>
    <g id="ytick_15"/>
   </g>
  </g>
  <g id="axes_4">
   <g id="patch_17">
    <path d="M 593.87976 126.59976 &#10;L 604.67976 126.59976 &#10;L 604.67976 40.19976 &#10;L 593.87976 40.19976 &#10;z&#10;" style="fill:none;"/>
   </g>
   <g id="patch_18">
    <path clip-path="url(#p00c20633d1)" d="M 593.87976 40.19976 &#10;L 593.87976 54.59976 &#10;L 593.87976 112.19976 &#10;L 593.87976 126.59976 &#10;L 604.67976 126.59976 &#10;L 604.67976 112.19976 &#10;L 604.67976 54.59976 &#10;L 604.67976 40.19976 &#10;L 604.67976 40.19976 &#10;z&#10;" style="fill:#ffffff;stroke:#ffffff;stroke-linejoin:miter;stroke-width:0.01;"/>
   </g>
   <g id="QuadMesh_1">
    <path clip-path="url(#p00c20633d1)" d="M 593.87976 40.19976 &#10;L 604.67976 40.19976 &#10;L 604.67976 54.59976 &#10;L 593.87976 54.59976 &#10;L 593.87976 40.19976 &#10;" style="fill:#d6efb3;"/>
    <path clip-path="url(#p00c20633d1)" d="M 593.87976 54.59976 &#10;L 604.67976 54.59976 &#10;L 604.67976 68.99976 &#10;L 593.87976 68.99976 &#10;L 593.87976 54.59976 &#10;" style="fill:#a0dab8;"/>
    <path clip-path="url(#p00c20633d1)" d="M 593.87976 68.99976 &#10;L 604.67976 68.99976 &#10;L 604.67976 83.39976 &#10;L 593.87976 83.39976 &#10;L 593.87976 68.99976 &#10;" style="fill:#5fc1c0;"/>
    <path clip-path="url(#p00c20633d1)" d="M 593.87976 83.39976 &#10;L 604.67976 83.39976 &#10;L 604.67976 97.79976 &#10;L 593.87976 97.79976 &#10;L 593.87976 83.39976 &#10;" style="fill:#2fa4c2;"/>
    <path clip-path="url(#p00c20633d1)" d="M 593.87976 97.79976 &#10;L 604.67976 97.79976 &#10;L 604.67976 112.19976 &#10;L 593.87976 112.19976 &#10;L 593.87976 97.79976 &#10;" style="fill:#1f7ab5;"/>
    <path clip-path="url(#p00c20633d1)" d="M 593.87976 112.19976 &#10;L 604.67976 112.19976 &#10;L 604.67976 126.59976 &#10;L 593.87976 126.59976 &#10;L 593.87976 112.19976 &#10;" style="fill:#234da0;"/>
   </g>
   <g id="matplotlib.axis_7"/>
   <g id="matplotlib.axis_8">
    <g id="ytick_16">
     <g id="line2d_41">
      <defs>
       <path d="M 0 0 &#10;L 3.5 0 &#10;" id="m1dd39a1627" style="stroke:#000000;stroke-width:0.8;"/>
      </defs>
      <g>
       <use style="stroke:#000000;stroke-width:0.8;" x="604.67976" xlink:href="#m1dd39a1627" y="119.39976"/>
      </g>
     </g>
     <g id="text_19">
      <text style="font-family:Arial;font-size:9px;font-stretch:normal;font-style:normal;font-weight:normal;text-anchor:start;" transform="rotate(-0, 611.67976, 122.620776)" x="611.67976" y="122.620776">1.0e-11</text>
     </g>
    </g>
    <g id="ytick_17">
     <g id="line2d_42">
      <g>
       <use style="stroke:#000000;stroke-width:0.8;" x="604.67976" xlink:href="#m1dd39a1627" y="104.99976"/>
      </g>
     </g>
     <g id="text_20">
      <text style="font-family:Arial;font-size:9px;font-stretch:normal;font-style:normal;font-weight:normal;text-anchor:start;" transform="rotate(-0, 611.67976, 108.220776)" x="611.67976" y="108.220776">1.0e-16</text>
     </g>
    </g>
    <g id="ytick_18">
     <g id="line2d_43">
      <g>
       <use style="stroke:#000000;stroke-width:0.8;" x="604.67976" xlink:href="#m1dd39a1627" y="90.59976"/>
      </g>
     </g>
     <g id="text_21">
      <text style="font-family:Arial;font-size:9px;font-stretch:normal;font-style:normal;font-weight:normal;text-anchor:start;" transform="rotate(-0, 611.67976, 93.820776)" x="611.67976" y="93.820776">1.0e-21</text>
     </g>
    </g>
    <g id="ytick_19">
     <g id="line2d_44">
      <g>
       <use style="stroke:#000000;stroke-width:0.8;" x="604.67976" xlink:href="#m1dd39a1627" y="76.19976"/>
      </g>
     </g>
     <g id="text_22">
      <text style="font-family:Arial;font-size:9px;font-stretch:normal;font-style:normal;font-weight:normal;text-anchor:start;" transform="rotate(-0, 611.67976, 79.420776)" x="611.67976" y="79.420776">1.0e-26</text>
     </g>
    </g>
    <g id="ytick_20">
     <g id="line2d_45">
      <g>
       <use style="stroke:#000000;stroke-width:0.8;" x="604.67976" xlink:href="#m1dd39a1627" y="61.79976"/>
      </g>
     </g>
     <g id="text_23">
      <text style="font-family:Arial;font-size:9px;font-stretch:normal;font-style:normal;font-weight:normal;text-anchor:start;" transform="rotate(-0, 611.67976, 65.020776)" x="611.67976" y="65.020776">1.0e-31</text>
     </g>
    </g>
    <g id="ytick_21">
     <g id="line2d_46">
      <g>
       <use style="stroke:#000000;stroke-width:0.8;" x="604.67976" xlink:href="#m1dd39a1627" y="47.39976"/>
      </g>
     </g>
     <g id="text_24">
      <text style="font-family:Arial;font-size:9px;font-stretch:normal;font-style:normal;font-weight:normal;text-anchor:start;" transform="rotate(-0, 611.67976, 50.620776)" x="611.67976" y="50.620776">1.0e-37</text>
     </g>
    </g>
   </g>
   <g id="LineCollection_1"/>
   <g id="patch_19">
    <path d="M 593.87976 40.19976 &#10;L 593.87976 54.59976 &#10;L 593.87976 112.19976 &#10;L 593.87976 126.59976 &#10;L 604.67976 126.59976 &#10;L 604.67976 112.19976 &#10;L 604.67976 54.59976 &#10;L 604.67976 40.19976 &#10;z&#10;" style="fill:none;"/>
   </g>
   <g id="text_25">
    <text style="font-family:Arial;font-size:9px;font-stretch:normal;font-style:normal;font-weight:normal;text-anchor:middle;" transform="rotate(-0, 599.27976, 34.19976)" x="599.27976" y="34.19976">FDR</text>
   </g>
  </g>
  <g id="axes_5">
   <g id="patch_20">
    <path d="M 587.39976 244.24776 &#10;L 648.95976 244.24776 &#10;L 648.95976 138.49416 &#10;L 587.39976 138.49416 &#10;z&#10;" style="fill:none;"/>
   </g>
   <g id="PathCollection_3">
    <g clip-path="url(#pb75db259ed)">
     <use style="fill:#ffffff;fill-opacity:0.6;stroke:#ffffff;stroke-opacity:0.6;" x="618.17976" xlink:href="#m89750b383e" y="191.37096"/>
    </g>
   </g>
   <g id="matplotlib.axis_9">
    <g id="xtick_9"/>
    <g id="xtick_10"/>
    <g id="xtick_11"/>
   </g>
   <g id="matplotlib.axis_10">
    <g id="ytick_22"/>
    <g id="ytick_23"/>
    <g id="ytick_24"/>
    <g id="ytick_25"/>
    <g id="ytick_26"/>
   </g>
  </g>
  <g id="axes_6">
   <g id="PathCollection_4">
    <defs>
     <path d="M 0 7.661309 &#10;C 2.031803 7.661309 3.980662 6.854065 5.417363 5.417363 &#10;C 6.854065 3.980662 7.661309 2.031803 7.661309 0 &#10;C 7.661309 -2.031803 6.854065 -3.980662 5.417363 -5.417363 &#10;C 3.980662 -6.854065 2.031803 -7.661309 0 -7.661309 &#10;C -2.031803 -7.661309 -3.980662 -6.854065 -5.417363 -5.417363 &#10;C -6.854065 -3.980662 -7.661309 -2.031803 -7.661309 0 &#10;C -7.661309 2.031803 -6.854065 3.980662 -5.417363 5.417363 &#10;C -3.980662 6.854065 -2.031803 7.661309 0 7.661309 &#10;z&#10;" id="m3bb060170e" style="stroke:#b5c2a4;stroke-width:2.2;"/>
    </defs>
    <g clip-path="url(#p9091d0d455)">
     <use style="fill:#d6efb3;stroke:#b5c2a4;stroke-width:2.2;" x="610.07976" xlink:href="#m3bb060170e" y="166.288375"/>
    </g>
   </g>
   <g id="PathCollection_5">
    <defs>
     <path d="M 0 10.108111 &#10;C 2.680702 10.108111 5.251971 9.043057 7.147514 7.147514 &#10;C 9.043057 5.251971 10.108111 2.680702 10.108111 0 &#10;C 10.108111 -2.680702 9.043057 -5.251971 7.147514 -7.147514 &#10;C 5.251971 -9.043057 2.680702 -10.108111 0 -10.108111 &#10;C -2.680702 -10.108111 -5.251971 -9.043057 -7.147514 -7.147514 &#10;C -9.043057 -5.251971 -10.108111 -2.680702 -10.108111 0 &#10;C -10.108111 2.680702 -9.043057 5.251971 -7.147514 7.147514 &#10;C -5.251971 9.043057 -2.680702 10.108111 0 10.108111 &#10;z&#10;" id="mfe7ba890b3" style="stroke:#b5c2a4;stroke-width:2.2;"/>
    </defs>
    <g clip-path="url(#p9091d0d455)">
     <use style="fill:#d6efb3;stroke:#b5c2a4;stroke-width:2.2;" x="610.07976" xlink:href="#mfe7ba890b3" y="192.43152"/>
    </g>
   </g>
   <g id="PathCollection_6">
    <defs>
     <path d="M 0 12.068644 &#10;C 3.200642 12.068644 6.270625 10.797016 8.53382 8.53382 &#10;C 10.797016 6.270625 12.068644 3.200642 12.068644 0 &#10;C 12.068644 -3.200642 10.797016 -6.270625 8.53382 -8.53382 &#10;C 6.270625 -10.797016 3.200642 -12.068644 0 -12.068644 &#10;C -3.200642 -12.068644 -6.270625 -10.797016 -8.53382 -8.53382 &#10;C -10.797016 -6.270625 -12.068644 -3.200642 -12.068644 0 &#10;C -12.068644 3.200642 -10.797016 6.270625 -8.53382 8.53382 &#10;C -6.270625 10.797016 -3.200642 12.068644 0 12.068644 &#10;z&#10;" id="m8c65468754" style="stroke:#b5c2a4;stroke-width:2.2;"/>
    </defs>
    <g clip-path="url(#p9091d0d455)">
     <use style="fill:#d6efb3;stroke:#b5c2a4;stroke-width:2.2;" x="610.07976" xlink:href="#m8c65468754" y="222.523454"/>
    </g>
   </g>
   <g id="text_26">
    <text style="font-family:Arial;font-size:9px;font-stretch:normal;font-style:normal;font-weight:normal;text-anchor:start;" transform="rotate(-0, 626.27976, 169.744862)" x="626.27976" y="169.744862">10</text>
   </g>
   <g id="text_27">
    <text style="font-family:Arial;font-size:9px;font-stretch:normal;font-style:normal;font-weight:normal;text-anchor:start;" transform="rotate(-0, 626.27976, 195.888006)" x="626.27976" y="195.888006">20</text>
   </g>
   <g id="text_28">
    <text style="font-family:Arial;font-size:9px;font-stretch:normal;font-style:normal;font-weight:normal;text-anchor:start;" transform="rotate(-0, 626.27976, 225.97994)" x="626.27976" y="225.97994">30</text>
   </g>
   <g id="text_29">
    <text style="font-family:Arial;font-size:9px;font-stretch:normal;font-style:normal;font-weight:normal;text-anchor:middle;" transform="rotate(-0, 616.55976, 150.11976)" x="616.55976" y="150.11976">Gene count</text>
   </g>
  </g>
 </g>
 <defs>
  <clipPath id="pacbb124c67">
   <rect height="315.80827" width="377.950616" x="170.28125" y="21.214531"/>
  </clipPath>
  <clipPath id="p2edfaf3112">
   <rect height="315.80827" width="94.487654" x="554.711866" y="21.214531"/>
  </clipPath>
  <clipPath id="pf804676a2a">
   <rect height="108" width="64.8" x="587.39976" y="22.19976"/>
  </clipPath>
  <clipPath id="p00c20633d1">
   <rect height="86.4" width="10.8" x="593.87976" y="40.19976"/>
  </clipPath>
  <clipPath id="pb75db259ed">
   <rect height="105.7536" width="61.56" x="587.39976" y="138.49416"/>
  </clipPath>
  <clipPath id="p9091d0d455">
   <rect height="146.88" width="32.4" x="593.87976" y="156.11976"/>
  </clipPath>
 </defs>
</svg>