<svg id="enrichment_category_graph_svg" height="368.39952pt" version="1.1" viewBox="0 0 659.39976 368.39952" width="659.39976pt" xmlns="http://www.w3.org/2000/svg" xmlns:xlink="http://www.w3.org/1999/xlink">
 <metadata>
  <rdf:rdf xmlns:cc="http://creativecommons.org/ns#" xmlns:dc="http://purl.org/dc/elements/1.1/" xmlns:rdf="http://www.w3.org/1999/02/22-rdf-syntax-ns#">
   <cc:work>
    <dc:type rdf:resource="http://purl.org/dc/dcmitype/StillImage"/>
    <dc:date>2025-08-14T12:48:30.251755</dc:date>
    <dc:format>image/svg+xml</dc:format>
    <dc:creator>
     <cc:agent>
      <dc:title>Matplotlib v3.4.2, https://matplotlib.org/</dc:title>
     </cc:agent>
    </dc:creator>
   </cc:work>
  </rdf:rdf>
 </metadata>
 <defs>
  <style type="text/css">*{stroke-linecap:butt;stroke-linejoin:round;}</style>
 </defs>
 <g id="figure_1">
  <g id="patch_1">
   <path d="M 0 368.39952 &#10;L 659.39976 368.39952 &#10;L 659.39976 0 &#10;L 0 0 &#10;z&#10;" style="fill:none;"/>
  </g>
  <g id="axes_1">
   <g id="patch_2">
    <path d="M 139.229844 337.022801 &#10;L 542.021585 337.022801 &#10;L 542.021585 21.214531 &#10;L 139.229844 21.214531 &#10;z&#10;" style="fill:none;"/>
   </g>
   <g id="matplotlib.axis_1">
    <g id="xtick_1">
     <g id="line2d_1">
      <path clip-path="url(#p265c53e62e)" d="M 162.589552 337.022801 &#10;L 162.589552 21.214531 &#10;" style="fill:none;stroke:#d3d3d3;stroke-dasharray:2.22,0.96;stroke-dashoffset:0;stroke-width:0.6;"/>
     </g>
     <g id="line2d_2"/>
     <g id="text_1">
      <text style="font-family:Arial;font-size:9px;font-stretch:normal;font-style:normal;font-weight:normal;text-anchor:middle;" transform="rotate(-0, 162.589552, 346.964832)" x="162.589552" y="346.964832">2</text>
     </g>
    </g>
    <g id="xtick_2">
     <g id="line2d_3">
      <path clip-path="url(#p265c53e62e)" d="M 231.196936 337.022801 &#10;L 231.196936 21.214531 &#10;" style="fill:none;stroke:#d3d3d3;stroke-dasharray:2.22,0.96;stroke-dashoffset:0;stroke-width:0.6;"/>
     </g>
     <g id="line2d_4"/>
     <g id="text_2">
      <text style="font-family:Arial;font-size:9px;font-stretch:normal;font-style:normal;font-weight:normal;text-anchor:middle;" transform="rotate(-0, 231.196936, 346.964832)" x="231.196936" y="346.964832">3</text>
     </g>
    </g>
    <g id="xtick_3">
     <g id="line2d_5">
      <path clip-path="url(#p265c53e62e)" d="M 299.80432 337.022801 &#10;L 299.80432 21.214531 &#10;" style="fill:none;stroke:#d3d3d3;stroke-dasharray:2.22,0.96;stroke-dashoffset:0;stroke-width:0.6;"/>
     </g>
     <g id="line2d_6"/>
     <g id="text_3">
      <text style="font-family:Arial;font-size:9px;font-stretch:normal;font-style:normal;font-weight:normal;text-anchor:middle;" transform="rotate(-0, 299.80432, 346.964832)" x="299.80432" y="346.964832">4</text>
     </g>
    </g>
    <g id="xtick_4">
     <g id="line2d_7">
      <path clip-path="url(#p265c53e62e)" d="M 368.411705 337.022801 &#10;L 368.411705 21.214531 &#10;" style="fill:none;stroke:#d3d3d3;stroke-dasharray:2.22,0.96;stroke-dashoffset:0;stroke-width:0.6;"/>
     </g>
     <g id="line2d_8"/>
     <g id="text_4">
      <text style="font-family:Arial;font-size:9px;font-stretch:normal;font-style:normal;font-weight:normal;text-anchor:middle;" transform="rotate(-0, 368.411705, 346.964832)" x="368.411705" y="346.964832">5</text>
     </g>
    </g>
    <g id="xtick_5">
     <g id="line2d_9">
      <path clip-path="url(#p265c53e62e)" d="M 437.019089 337.022801 &#10;L 437.019089 21.214531 &#10;" style="fill:none;stroke:#d3d3d3;stroke-dasharray:2.22,0.96;stroke-dashoffset:0;stroke-width:0.6;"/>
     </g>
     <g id="line2d_10"/>
     <g id="text_5">
      <text style="font-family:Arial;font-size:9px;font-stretch:normal;font-style:normal;font-weight:normal;text-anchor:middle;" transform="rotate(-0, 437.019089, 346.964832)" x="437.019089" y="346.964832">6</text>
     </g>
    </g>
    <g id="xtick_6">
     <g id="line2d_11">
      <path clip-path="url(#p265c53e62e)" d="M 505.626474 337.022801 &#10;L 505.626474 21.214531 &#10;" style="fill:none;stroke:#d3d3d3;stroke-dasharray:2.22,0.96;stroke-dashoffset:0;stroke-width:0.6;"/>
     </g>
     <g id="line2d_12"/>
     <g id="text_6">
      <text style="font-family:Arial;font-size:9px;font-stretch:normal;font-style:normal;font-weight:normal;text-anchor:middle;" transform="rotate(-0, 505.626474, 346.964832)" x="505.626474" y="346.964832">7</text>
     </g>
    </g>
    <g id="text_7">
     <text style="font-family:Arial;font-size:9px;font-stretch:normal;font-style:normal;font-weight:normal;text-anchor:middle;" transform="rotate(-0, 340.625714, 359.305301)" x="340.625714" y="359.305301">Signal</text>
    </g>
   </g>
   <g id="matplotlib.axis_2">
    <g id="ytick_1">
     <g id="line2d_13"/>
     <g id="text_8">
      <text style="font-family:Arial;font-size:9px;font-stretch:normal;font-style:normal;font-weight:normal;text-anchor:end;" transform="rotate(-0, 135.729844, 53.14539)" x="135.729844" y="53.14539">Extracellular matrix organization</text>
     </g>
    </g>
    <g id="ytick_2">
     <g id="line2d_14"/>
     <g id="text_9">
      <text style="font-family:Arial;font-size:9px;font-stretch:normal;font-style:normal;font-weight:normal;text-anchor:end;" transform="rotate(-0, 135.729844, 81.910076)" x="135.729844" y="81.910076">Collagen fibril organization</text>
     </g>
    </g>
    <g id="ytick_3">
     <g id="line2d_15"/>
     <g id="text_10">
      <text style="font-family:Arial;font-size:9px;font-stretch:normal;font-style:normal;font-weight:normal;text-anchor:end;" transform="rotate(-0, 135.729844, 110.565075)" x="135.729844" y="110.565075">Extracellular matrix assembly</text>
     </g>
    </g>
    <g id="ytick_4">
     <g id="line2d_16"/>
     <g id="text_11">
      <text style="font-family:Arial;font-size:9px;font-stretch:normal;font-style:normal;font-weight:normal;text-anchor:end;" transform="rotate(-0, 135.729844, 139.329762)" x="135.729844" y="139.329762">Collagen metabolic process</text>
     </g>
    </g>
    <g id="ytick_5">
     <g id="line2d_17"/>
     <g id="text_12">
      <text style="font-family:Arial;font-size:9px;font-stretch:normal;font-style:normal;font-weight:normal;text-anchor:end;" transform="rotate(-0, 135.729844, 168.039604)" x="135.729844" y="168.039604">Elastic fiber assembly</text>
     </g>
    </g>
    <g id="ytick_6">
     <g id="line2d_18"/>
     <g id="text_13">
      <text style="font-family:Arial;font-size:9px;font-stretch:normal;font-style:normal;font-weight:normal;text-anchor:end;" transform="rotate(-0, 135.729844, 196.694603)" x="135.729844" y="196.694603">Endodermal cell differentiation</text>
     </g>
    </g>
    <g id="ytick_7">
     <g id="line2d_19"/>
     <g id="text_14">
      <text style="font-family:Arial;font-size:9px;font-stretch:normal;font-style:normal;font-weight:normal;text-anchor:end;" transform="rotate(-0, 135.729844, 225.404446)" x="135.729844" y="225.404446">Extracellular matrix disassembly</text>
     </g>
    </g>
    <g id="ytick_8">
     <g id="line2d_20"/>
     <g id="text_15">
      <text style="font-family:Arial;font-size:9px;font-stretch:normal;font-style:normal;font-weight:normal;text-anchor:end;" transform="rotate(-0, 135.729844, 254.114289)" x="135.729844" y="254.114289">Response to wounding</text>
     </g>
    </g>
    <g id="ytick_9">
     <g id="line2d_21"/>
     <g id="text_16">
      <text style="font-family:Arial;font-size:9px;font-stretch:normal;font-style:normal;font-weight:normal;text-anchor:end;" transform="rotate(-0, 135.729844, 282.878975)" x="135.729844" y="282.878975">Regulation of fibrinolysis</text>
     </g>
    </g>
    <g id="ytick_10">
     <g id="line2d_22"/>
     <g id="text_17">
      <text style="font-family:Arial;font-size:9px;font-stretch:normal;font-style:normal;font-weight:normal;text-anchor:end;" transform="rotate(-0, 135.729844, 311.533974)" x="135.729844" y="311.533974">Blood vessel development</text>
     </g>
    </g>
   </g>
   <g id="patch_3">
    <path clip-path="url(#p265c53e62e)" d="M 139.229844 294.532234 &#10;L 542.021585 294.532234 &#10;L 542.021585 320.371092 &#10;L 139.229844 320.371092 &#10;z&#10;" style="fill:#1f7ab5;opacity:0.1;"/>
   </g>
   <g id="patch_4">
    <path clip-path="url(#p265c53e62e)" d="M 139.229844 265.822391 &#10;L 542.021585 265.822391 &#10;L 542.021585 291.66125 &#10;L 139.229844 291.66125 &#10;z&#10;" style="fill:#234da0;opacity:0.1;"/>
   </g>
   <g id="patch_5">
    <path clip-path="url(#p265c53e62e)" d="M 139.229844 237.112549 &#10;L 542.021585 237.112549 &#10;L 542.021585 262.951407 &#10;L 139.229844 262.951407 &#10;z&#10;" style="fill:#1f7ab5;opacity:0.1;"/>
   </g>
   <g id="patch_6">
    <path clip-path="url(#p265c53e62e)" d="M 139.229844 208.402706 &#10;L 542.021585 208.402706 &#10;L 542.021585 234.241564 &#10;L 139.229844 234.241564 &#10;z&#10;" style="fill:#234da0;opacity:0.1;"/>
   </g>
   <g id="patch_7">
    <path clip-path="url(#p265c53e62e)" d="M 139.229844 179.692863 &#10;L 542.021585 179.692863 &#10;L 542.021585 205.531722 &#10;L 139.229844 205.531722 &#10;z&#10;" style="fill:#234da0;opacity:0.1;"/>
   </g>
   <g id="patch_8">
    <path clip-path="url(#p265c53e62e)" d="M 139.229844 150.98302 &#10;L 542.021585 150.98302 &#10;L 542.021585 176.821879 &#10;L 139.229844 176.821879 &#10;z&#10;" style="fill:#234da0;opacity:0.1;"/>
   </g>
   <g id="patch_9">
    <path clip-path="url(#p265c53e62e)" d="M 139.229844 122.273178 &#10;L 542.021585 122.273178 &#10;L 542.021585 148.112036 &#10;L 139.229844 148.112036 &#10;z&#10;" style="fill:#234da0;opacity:0.1;"/>
   </g>
   <g id="patch_10">
    <path clip-path="url(#p265c53e62e)" d="M 139.229844 93.563335 &#10;L 542.021585 93.563335 &#10;L 542.021585 119.402193 &#10;L 139.229844 119.402193 &#10;z&#10;" style="fill:#234da0;opacity:0.1;"/>
   </g>
   <g id="patch_11">
    <path clip-path="url(#p265c53e62e)" d="M 139.229844 64.853492 &#10;L 542.021585 64.853492 &#10;L 542.021585 90.692351 &#10;L 139.229844 90.692351 &#10;z&#10;" style="fill:#1f7ab5;opacity:0.1;"/>
   </g>
   <g id="patch_12">
    <path clip-path="url(#p265c53e62e)" d="M 139.229844 36.143649 &#10;L 542.021585 36.143649 &#10;L 542.021585 61.982508 &#10;L 139.229844 61.982508 &#10;z&#10;" style="fill:#d6efb3;opacity:0.1;"/>
   </g>
   <g id="horizontalLine_Process:GO.0030198">
    <path data-original-stroke="grey" clip-path="url(#p265c53e62e)" d="M 139.229844 49.924374 &#10;L 520.720098 49.924374 &#10;" style="fill:none;stroke:#d6efb3;stroke-linecap:square;stroke-width:3;"/>
   </g>
   <g id="horizontalLine_Process:GO.0030199">
    <path data-original-stroke="grey" clip-path="url(#p265c53e62e)" d="M 139.229844 78.634217 &#10;L 332.735865 78.634217 &#10;" style="fill:none;stroke:#1f7ab5;stroke-linecap:square;stroke-width:3;"/>
   </g>
   <g id="horizontalLine_Process:GO.0085029">
    <path data-original-stroke="grey" clip-path="url(#p265c53e62e)" d="M 139.229844 107.344059 &#10;L 217.475459 107.344059 &#10;" style="fill:none;stroke:#234da0;stroke-linecap:square;stroke-width:3;"/>
   </g>
   <g id="horizontalLine_Process:GO.0032963">
    <path data-original-stroke="grey" clip-path="url(#p265c53e62e)" d="M 139.229844 136.053902 &#10;L 200.323613 136.053902 &#10;" style="fill:none;stroke:#234da0;stroke-linecap:square;stroke-width:3;"/>
   </g>
   <g id="horizontalLine_Process:GO.0048251">
    <path data-original-stroke="grey" clip-path="url(#p265c53e62e)" d="M 139.229844 164.763745 &#10;L 180.427472 164.763745 &#10;" style="fill:none;stroke:#234da0;stroke-linecap:square;stroke-width:3;"/>
   </g>
   <g id="horizontalLine_Process:GO.0035987">
    <path data-original-stroke="grey" clip-path="url(#p265c53e62e)" d="M 139.229844 193.473588 &#10;L 171.508512 193.473588 &#10;" style="fill:none;stroke:#234da0;stroke-linecap:square;stroke-width:3;"/>
   </g>
   <g id="horizontalLine_Process:GO.0022617">
    <path data-original-stroke="grey" clip-path="url(#p265c53e62e)" d="M 139.229844 222.18343 &#10;L 167.392068 222.18343 &#10;" style="fill:none;stroke:#234da0;stroke-linecap:square;stroke-width:3;"/>
   </g>
   <g id="horizontalLine_Process:GO.0009611">
    <path data-original-stroke="grey" clip-path="url(#p265c53e62e)" d="M 139.229844 250.893273 &#10;L 166.019921 250.893273 &#10;" style="fill:none;stroke:#1f7ab5;stroke-linecap:square;stroke-width:3;"/>
   </g>
   <g id="horizontalLine_Process:GO.0051917">
    <path data-original-stroke="grey" clip-path="url(#p265c53e62e)" d="M 139.229844 279.603116 &#10;L 162.589552 279.603116 &#10;" style="fill:none;stroke:#234da0;stroke-linecap:square;stroke-width:3;"/>
   </g>
   <g id="horizontalLine_Process:GO.0001568">
    <path data-original-stroke="grey" clip-path="url(#p265c53e62e)" d="M 139.229844 308.312959 &#10;L 160.53133 308.312959 &#10;" style="fill:none;stroke:#1f7ab5;stroke-linecap:square;stroke-width:3;"/>
   </g>
   <g id="line2d_23">
    <path clip-path="url(#p265c53e62e)" d="M 139.229844 49.924374 &#10;L 520.720098 49.924374 &#10;" style="fill:none;stroke:#ffffff;stroke-linecap:square;stroke-opacity:0.4;stroke-width:3;"/>
   </g>
   <g id="line2d_24">
    <path clip-path="url(#p265c53e62e)" d="M 139.229844 78.634217 &#10;L 332.735865 78.634217 &#10;" style="fill:none;stroke:#ffffff;stroke-linecap:square;stroke-opacity:0.4;stroke-width:3;"/>
   </g>
   <g id="line2d_25">
    <path clip-path="url(#p265c53e62e)" d="M 139.229844 107.344059 &#10;L 217.475459 107.344059 &#10;" style="fill:none;stroke:#ffffff;stroke-linecap:square;stroke-opacity:0.4;stroke-width:3;"/>
   </g>
   <g id="line2d_26">
    <path clip-path="url(#p265c53e62e)" d="M 139.229844 136.053902 &#10;L 200.323613 136.053902 &#10;" style="fill:none;stroke:#ffffff;stroke-linecap:square;stroke-opacity:0.4;stroke-width:3;"/>
   </g>
   <g id="line2d_27">
    <path clip-path="url(#p265c53e62e)" d="M 139.229844 164.763745 &#10;L 180.427472 164.763745 &#10;" style="fill:none;stroke:#ffffff;stroke-linecap:square;stroke-opacity:0.4;stroke-width:3;"/>
   </g>
   <g id="line2d_28">
    <path clip-path="url(#p265c53e62e)" d="M 139.229844 193.473588 &#10;L 171.508512 193.473588 &#10;" style="fill:none;stroke:#ffffff;stroke-linecap:square;stroke-opacity:0.4;stroke-width:3;"/>
   </g>
   <g id="line2d_29">
    <path clip-path="url(#p265c53e62e)" d="M 139.229844 222.18343 &#10;L 167.392068 222.18343 &#10;" style="fill:none;stroke:#ffffff;stroke-linecap:square;stroke-opacity:0.4;stroke-width:3;"/>
   </g>
   <g id="line2d_30">
    <path clip-path="url(#p265c53e62e)" d="M 139.229844 250.893273 &#10;L 166.019921 250.893273 &#10;" style="fill:none;stroke:#ffffff;stroke-linecap:square;stroke-opacity:0.4;stroke-width:3;"/>
   </g>
   <g id="line2d_31">
    <path clip-path="url(#p265c53e62e)" d="M 139.229844 279.603116 &#10;L 162.589552 279.603116 &#10;" style="fill:none;stroke:#ffffff;stroke-linecap:square;stroke-opacity:0.4;stroke-width:3;"/>
   </g>
   <g id="line2d_32">
    <path clip-path="url(#p265c53e62e)" d="M 139.229844 308.312959 &#10;L 160.53133 308.312959 &#10;" style="fill:none;stroke:#ffffff;stroke-linecap:square;stroke-opacity:0.4;stroke-width:3;"/>
   </g>
   <g id="dots_plot">
    <path id="circle_Process:GO.0030198" data-original-stroke="grey" clip-path="url(#p265c53e62e)" d="M 520.720098 62.171823 &#10;C 523.96816 62.171823 527.083626 60.881354 529.380352 58.584628 &#10;C 531.677079 56.287902 532.967547 53.172435 532.967547 49.924374 &#10;C 532.967547 46.676313 531.677079 43.560846 529.380352 41.26412 &#10;C 527.083626 38.967394 523.96816 37.676925 520.720098 37.676925 &#10;C 517.472037 37.676925 514.356571 38.967394 512.059844 41.26412 &#10;C 509.763118 43.560846 508.47265 46.676313 508.47265 49.924374 &#10;C 508.47265 53.172435 509.763118 56.287902 512.059844 58.584628 &#10;C 514.356571 60.881354 517.472037 62.171823 520.720098 62.171823 &#10;z&#10;" style="fill:#d6efb3;stroke:#d6efb3;stroke-width:2.2;"/>
    <path id="circle_Process:GO.0030199" data-original-stroke="grey" clip-path="url(#p265c53e62e)" d="M 332.735865 85.480749 &#10;C 334.551587 85.480749 336.293185 84.759355 337.577094 83.475446 &#10;C 338.861003 82.191537 339.582397 80.449938 339.582397 78.634217 &#10;C 339.582397 76.818495 338.861003 75.076897 337.577094 73.792988 &#10;C 336.293185 72.509079 334.551587 71.787685 332.735865 71.787685 &#10;C 330.920144 71.787685 329.178545 72.509079 327.894636 73.792988 &#10;C 326.610727 75.076897 325.889333 76.818495 325.889333 78.634217 &#10;C 325.889333 80.449938 326.610727 82.191537 327.894636 83.475446 &#10;C 329.178545 84.759355 330.920144 85.480749 332.735865 85.480749 &#10;z&#10;" style="fill:#1f7ab5;stroke:#1f7ab5;stroke-width:2.2;"/>
    <path id="circle_Process:GO.0085029" data-original-stroke="grey" clip-path="url(#p265c53e62e)" d="M 217.475459 112.238784 &#10;C 218.773555 112.238784 220.01866 111.723045 220.936552 110.805153 &#10;C 221.854445 109.88726 222.370184 108.642156 222.370184 107.344059 &#10;C 222.370184 106.045963 221.854445 104.800859 220.936552 103.882966 &#10;C 220.01866 102.965073 218.773555 102.449334 217.475459 102.449334 &#10;C 216.177363 102.449334 214.932259 102.965073 214.014366 103.882966 &#10;C 213.096473 104.800859 212.580734 106.045963 212.580734 107.344059 &#10;C 212.580734 108.642156 213.096473 109.88726 214.014366 110.805153 &#10;C 214.932259 111.723045 216.177363 112.238784 217.475459 112.238784 &#10;z&#10;" style="fill:#234da0;stroke:#234da0;stroke-width:2.2;"/>
    <path id="circle_Process:GO.0032963" data-original-stroke="grey" clip-path="url(#p265c53e62e)" d="M 200.323613 141.324365 &#10;C 201.721356 141.324365 203.062039 140.769036 204.050393 139.780682 &#10;C 205.038747 138.792329 205.594076 137.451645 205.594076 136.053902 &#10;C 205.594076 134.656159 205.038747 133.315476 204.050393 132.327122 &#10;C 203.062039 131.338769 201.721356 130.783439 200.323613 130.783439 &#10;C 198.92587 130.783439 197.585187 131.338769 196.596833 132.327122 &#10;C 195.608479 133.315476 195.05315 134.656159 195.05315 136.053902 &#10;C 195.05315 137.451645 195.608479 138.792329 196.596833 139.780682 &#10;C 197.585187 140.769036 198.92587 141.324365 200.323613 141.324365 &#10;z&#10;" style="fill:#234da0;stroke:#234da0;stroke-width:2.2;"/>
    <path id="circle_Process:GO.0048251" data-original-stroke="grey" clip-path="url(#p265c53e62e)" d="M 180.427472 168.299279 &#10;C 181.365106 168.299279 182.264464 167.926753 182.927472 167.263745 &#10;C 183.590479 166.600737 183.963005 165.701379 183.963005 164.763745 &#10;C 183.963005 163.82611 183.590479 162.926753 182.927472 162.263745 &#10;C 182.264464 161.600737 181.365106 161.228211 180.427472 161.228211 &#10;C 179.489837 161.228211 178.590479 161.600737 177.927472 162.263745 &#10;C 177.264464 162.926753 176.891938 163.82611 176.891938 164.763745 &#10;C 176.891938 165.701379 177.264464 166.600737 177.927472 167.263745 &#10;C 178.590479 167.926753 179.489837 168.299279 180.427472 168.299279 &#10;z&#10;" style="fill:#234da0;stroke:#234da0;stroke-width:2.2;"/>
    <path id="circle_Process:GO.0035987" data-original-stroke="grey" clip-path="url(#p265c53e62e)" d="M 171.508512 197.961225 &#10;C 172.698647 197.961225 173.840198 197.488379 174.68175 196.646826 &#10;C 175.523303 195.805274 175.996149 194.663723 175.996149 193.473588 &#10;C 175.996149 192.283452 175.523303 191.141902 174.68175 190.300349 &#10;C 173.840198 189.458796 172.698647 188.98595 171.508512 188.98595 &#10;C 170.318376 188.98595 169.176826 189.458796 168.335273 190.300349 &#10;C 167.49372 191.141902 167.020874 192.283452 167.020874 193.473588 &#10;C 167.020874 194.663723 167.49372 195.805274 168.335273 196.646826 &#10;C 169.176826 197.488379 170.318376 197.961225 171.508512 197.961225 &#10;z&#10;" style="fill:#234da0;stroke:#234da0;stroke-width:2.2;"/>
    <path id="circle_Process:GO.0022617" data-original-stroke="grey" clip-path="url(#p265c53e62e)" d="M 167.392068 226.671068 &#10;C 168.582204 226.671068 169.723755 226.198222 170.565307 225.356669 &#10;C 171.40686 224.515116 171.879706 223.373566 171.879706 222.18343 &#10;C 171.879706 220.993295 171.40686 219.851744 170.565307 219.010192 &#10;C 169.723755 218.168639 168.582204 217.695793 167.392068 217.695793 &#10;C 166.201933 217.695793 165.060382 218.168639 164.21883 219.010192 &#10;C 163.377277 219.851744 162.904431 220.993295 162.904431 222.18343 &#10;C 162.904431 223.373566 163.377277 224.515116 164.21883 225.356669 &#10;C 165.060382 226.198222 166.201933 226.671068 167.392068 226.671068 &#10;z&#10;" style="fill:#234da0;stroke:#234da0;stroke-width:2.2;"/>
    <path id="circle_Process:GO.0009611" data-original-stroke="grey" clip-path="url(#p265c53e62e)" d="M 166.019921 259.247414 &#10;C 168.235465 259.247414 170.360564 258.367169 171.92719 256.800543 &#10;C 173.493817 255.233916 174.374061 253.108817 174.374061 250.893273 &#10;C 174.374061 248.677729 173.493817 246.55263 171.92719 244.986004 &#10;C 170.360564 243.419377 168.235465 242.539132 166.019921 242.539132 &#10;C 163.804377 242.539132 161.679277 243.419377 160.112651 244.986004 &#10;C 158.546025 246.55263 157.66578 248.677729 157.66578 250.893273 &#10;C 157.66578 253.108817 158.546025 255.233916 160.112651 256.800543 &#10;C 161.679277 258.367169 163.804377 259.247414 166.019921 259.247414 &#10;z&#10;" style="fill:#1f7ab5;stroke:#1f7ab5;stroke-width:2.2;"/>
    <path id="circle_Process:GO.0051917" data-original-stroke="grey" clip-path="url(#p265c53e62e)" d="M 162.589552 283.13865 &#10;C 163.527186 283.13865 164.426544 282.766124 165.089552 282.103116 &#10;C 165.752559 281.440108 166.125085 280.54075 166.125085 279.603116 &#10;C 166.125085 278.665481 165.752559 277.766124 165.089552 277.103116 &#10;C 164.426544 276.440108 163.527186 276.067582 162.589552 276.067582 &#10;C 161.651917 276.067582 160.752559 276.440108 160.089552 277.103116 &#10;C 159.426544 277.766124 159.054018 278.665481 159.054018 279.603116 &#10;C 159.054018 280.54075 159.426544 281.440108 160.089552 282.103116 &#10;C 160.752559 282.766124 161.651917 283.13865 162.589552 283.13865 &#10;z&#10;" style="fill:#234da0;stroke:#234da0;stroke-width:2.2;"/>
    <path id="circle_Process:GO.0001568" data-original-stroke="grey" clip-path="url(#p265c53e62e)" d="M 160.53133 316.89265 &#10;C 162.806691 316.89265 164.989165 315.98864 166.598088 314.379717 &#10;C 168.207011 312.770794 169.111022 310.588319 169.111022 308.312959 &#10;C 169.111022 306.037598 168.207011 303.855123 166.598088 302.2462 &#10;C 164.989165 300.637277 162.806691 299.733267 160.53133 299.733267 &#10;C 158.255969 299.733267 156.073495 300.637277 154.464572 302.2462 &#10;C 152.855649 303.855123 151.951638 306.037598 151.951638 308.312959 &#10;C 151.951638 310.588319 152.855649 312.770794 154.464572 314.379717 &#10;C 156.073495 315.98864 158.255969 316.89265 160.53133 316.89265 &#10;z&#10;" style="fill:#1f7ab5;stroke:#1f7ab5;stroke-width:2.2;"/>
   </g>
   <g id="PathCollection_1">
    <path clip-path="url(#p265c53e62e)" d="M 520.720098 62.171823 &#10;C 523.96816 62.171823 527.083626 60.881354 529.380352 58.584628 &#10;C 531.677079 56.287902 532.967547 53.172435 532.967547 49.924374 &#10;C 532.967547 46.676313 531.677079 43.560846 529.380352 41.26412 &#10;C 527.083626 38.967394 523.96816 37.676925 520.720098 37.676925 &#10;C 517.472037 37.676925 514.356571 38.967394 512.059844 41.26412 &#10;C 509.763118 43.560846 508.47265 46.676313 508.47265 49.924374 &#10;C 508.47265 53.172435 509.763118 56.287902 512.059844 58.584628 &#10;C 514.356571 60.881354 517.472037 62.171823 520.720098 62.171823 &#10;z&#10;" style="fill:none;stroke:#808080;stroke-opacity:0.45;stroke-width:2.2;"/>
    <path clip-path="url(#p265c53e62e)" d="M 332.735865 85.480749 &#10;C 334.551587 85.480749 336.293185 84.759355 337.577094 83.475446 &#10;C 338.861003 82.191537 339.582397 80.449938 339.582397 78.634217 &#10;C 339.582397 76.818495 338.861003 75.076897 337.577094 73.792988 &#10;C 336.293185 72.509079 334.551587 71.787685 332.735865 71.787685 &#10;C 330.920144 71.787685 329.178545 72.509079 327.894636 73.792988 &#10;C 326.610727 75.076897 325.889333 76.818495 325.889333 78.634217 &#10;C 325.889333 80.449938 326.610727 82.191537 327.894636 83.475446 &#10;C 329.178545 84.759355 330.920144 85.480749 332.735865 85.480749 &#10;z&#10;" style="fill:none;stroke:#808080;stroke-opacity:0.45;stroke-width:2.2;"/>
    <path clip-path="url(#p265c53e62e)" d="M 217.475459 112.238784 &#10;C 218.773555 112.238784 220.01866 111.723045 220.936552 110.805153 &#10;C 221.854445 109.88726 222.370184 108.642156 222.370184 107.344059 &#10;C 222.370184 106.045963 221.854445 104.800859 220.936552 103.882966 &#10;C 220.01866 102.965073 218.773555 102.449334 217.475459 102.449334 &#10;C 216.177363 102.449334 214.932259 102.965073 214.014366 103.882966 &#10;C 213.096473 104.800859 212.580734 106.045963 212.580734 107.344059 &#10;C 212.580734 108.642156 213.096473 109.88726 214.014366 110.805153 &#10;C 214.932259 111.723045 216.177363 112.238784 217.475459 112.238784 &#10;z&#10;" style="fill:none;stroke:#808080;stroke-opacity:0.45;stroke-width:2.2;"/>
    <path clip-path="url(#p265c53e62e)" d="M 200.323613 141.324365 &#10;C 201.721356 141.324365 203.062039 140.769036 204.050393 139.780682 &#10;C 205.038747 138.792329 205.594076 137.451645 205.594076 136.053902 &#10;C 205.594076 134.656159 205.038747 133.315476 204.050393 132.327122 &#10;C 203.062039 131.338769 201.721356 130.783439 200.323613 130.783439 &#10;C 198.92587 130.783439 197.585187 131.338769 196.596833 132.327122 &#10;C 195.608479 133.315476 195.05315 134.656159 195.05315 136.053902 &#10;C 195.05315 137.451645 195.608479 138.792329 196.596833 139.780682 &#10;C 197.585187 140.769036 198.92587 141.324365 200.323613 141.324365 &#10;z&#10;" style="fill:none;stroke:#808080;stroke-opacity:0.45;stroke-width:2.2;"/>
    <path clip-path="url(#p265c53e62e)" d="M 180.427472 168.299279 &#10;C 181.365106 168.299279 182.264464 167.926753 182.927472 167.263745 &#10;C 183.590479 166.600737 183.963005 165.701379 183.963005 164.763745 &#10;C 183.963005 163.82611 183.590479 162.926753 182.927472 162.263745 &#10;C 182.264464 161.600737 181.365106 161.228211 180.427472 161.228211 &#10;C 179.489837 161.228211 178.590479 161.600737 177.927472 162.263745 &#10;C 177.264464 162.926753 176.891938 163.82611 176.891938 164.763745 &#10;C 176.891938 165.701379 177.264464 166.600737 177.927472 167.263745 &#10;C 178.590479 167.926753 179.489837 168.299279 180.427472 168.299279 &#10;z&#10;" style="fill:none;stroke:#808080;stroke-opacity:0.45;stroke-width:2.2;"/>
    <path clip-path="url(#p265c53e62e)" d="M 171.508512 197.961225 &#10;C 172.698647 197.961225 173.840198 197.488379 174.68175 196.646826 &#10;C 175.523303 195.805274 175.996149 194.663723 175.996149 193.473588 &#10;C 175.996149 192.283452 175.523303 191.141902 174.68175 190.300349 &#10;C 173.840198 189.458796 172.698647 188.98595 171.508512 188.98595 &#10;C 170.318376 188.98595 169.176826 189.458796 168.335273 190.300349 &#10;C 167.49372 191.141902 167.020874 192.283452 167.020874 193.473588 &#10;C 167.020874 194.663723 167.49372 195.805274 168.335273 196.646826 &#10;C 169.176826 197.488379 170.318376 197.961225 171.508512 197.961225 &#10;z&#10;" style="fill:none;stroke:#808080;stroke-opacity:0.45;stroke-width:2.2;"/>
    <path clip-path="url(#p265c53e62e)" d="M 167.392068 226.671068 &#10;C 168.582204 226.671068 169.723755 226.198222 170.565307 225.356669 &#10;C 171.40686 224.515116 171.879706 223.373566 171.879706 222.18343 &#10;C 171.879706 220.993295 171.40686 219.851744 170.565307 219.010192 &#10;C 169.723755 218.168639 168.582204 217.695793 167.392068 217.695793 &#10;C 166.201933 217.695793 165.060382 218.168639 164.21883 219.010192 &#10;C 163.377277 219.851744 162.904431 220.993295 162.904431 222.18343 &#10;C 162.904431 223.373566 163.377277 224.515116 164.21883 225.356669 &#10;C 165.060382 226.198222 166.201933 226.671068 167.392068 226.671068 &#10;z&#10;" style="fill:none;stroke:#808080;stroke-opacity:0.45;stroke-width:2.2;"/>
    <path clip-path="url(#p265c53e62e)" d="M 166.019921 259.247414 &#10;C 168.235465 259.247414 170.360564 258.367169 171.92719 256.800543 &#10;C 173.493817 255.233916 174.374061 253.108817 174.374061 250.893273 &#10;C 174.374061 248.677729 173.493817 246.55263 171.92719 244.986004 &#10;C 170.360564 243.419377 168.235465 242.539132 166.019921 242.539132 &#10;C 163.804377 242.539132 161.679277 243.419377 160.112651 244.986004 &#10;C 158.546025 246.55263 157.66578 248.677729 157.66578 250.893273 &#10;C 157.66578 253.108817 158.546025 255.233916 160.112651 256.800543 &#10;C 161.679277 258.367169 163.804377 259.247414 166.019921 259.247414 &#10;z&#10;" style="fill:none;stroke:#808080;stroke-opacity:0.45;stroke-width:2.2;"/>
    <path clip-path="url(#p265c53e62e)" d="M 162.589552 283.13865 &#10;C 163.527186 283.13865 164.426544 282.766124 165.089552 282.103116 &#10;C 165.752559 281.440108 166.125085 280.54075 166.125085 279.603116 &#10;C 166.125085 278.665481 165.752559 277.766124 165.089552 277.103116 &#10;C 164.426544 276.440108 163.527186 276.067582 162.589552 276.067582 &#10;C 161.651917 276.067582 160.752559 276.440108 160.089552 277.103116 &#10;C 159.426544 277.766124 159.054018 278.665481 159.054018 279.603116 &#10;C 159.054018 280.54075 159.426544 281.440108 160.089552 282.103116 &#10;C 160.752559 282.766124 161.651917 283.13865 162.589552 283.13865 &#10;z&#10;" style="fill:none;stroke:#808080;stroke-opacity:0.45;stroke-width:2.2;"/>
    <path clip-path="url(#p265c53e62e)" d="M 160.53133 316.89265 &#10;C 162.806691 316.89265 164.989165 315.98864 166.598088 314.379717 &#10;C 168.207011 312.770794 169.111022 310.588319 169.111022 308.312959 &#10;C 169.111022 306.037598 168.207011 303.855123 166.598088 302.2462 &#10;C 164.989165 300.637277 162.806691 299.733267 160.53133 299.733267 &#10;C 158.255969 299.733267 156.073495 300.637277 154.464572 302.2462 &#10;C 152.855649 303.855123 151.951638 306.037598 151.951638 308.312959 &#10;C 151.951638 310.588319 152.855649 312.770794 154.464572 314.379717 &#10;C 156.073495 315.98864 158.255969 316.89265 160.53133 316.89265 &#10;z&#10;" style="fill:none;stroke:#808080;stroke-opacity:0.45;stroke-width:2.2;"/>
   </g>
   <g id="text_18">
    <text style="font-family:Arial;font-size:11px;font-stretch:normal;font-style:normal;font-weight:normal;text-anchor:middle;" transform="rotate(-0, 340.625714, 15.214531)" x="340.625714" y="15.214531">Biological Process (Gene Ontology) enrichment</text>
   </g>
   <g id="line2d_33">
    <path clip-path="url(#p265c53e62e)" d="M 520.720098 38.555276 &#10;L 520.720098 61.293472 &#10;" style="fill:none;stroke:#808080;stroke-dasharray:1.85,0.8;stroke-dashoffset:0;stroke-width:0.5;"/>
   </g>
   <g id="line2d_34">
    <path clip-path="url(#p265c53e62e)" d="M 332.735865 75.081374 &#10;L 332.735865 82.18706 &#10;" style="fill:none;stroke:#808080;stroke-dasharray:1.85,0.8;stroke-dashoffset:0;stroke-width:0.5;"/>
   </g>
   <g id="line2d_35">
    <path clip-path="url(#p265c53e62e)" d="M 217.475459 105.528162 &#10;L 217.475459 109.159957 &#10;" style="fill:none;stroke:#808080;stroke-dasharray:1.85,0.8;stroke-dashoffset:0;stroke-width:0.5;"/>
   </g>
   <g id="line2d_36">
    <path clip-path="url(#p265c53e62e)" d="M 200.323613 133.948514 &#10;L 200.323613 138.159291 &#10;" style="fill:none;stroke:#808080;stroke-dasharray:1.85,0.8;stroke-dashoffset:0;stroke-width:0.5;"/>
   </g>
   <g id="line2d_37">
    <path clip-path="url(#p265c53e62e)" d="M 180.427472 163.81632 &#10;L 180.427472 165.71117 &#10;" style="fill:none;stroke:#808080;stroke-dasharray:1.85,0.8;stroke-dashoffset:0;stroke-width:0.5;"/>
   </g>
   <g id="line2d_38">
    <path clip-path="url(#p265c53e62e)" d="M 171.508512 191.947181 &#10;L 171.508512 194.999994 &#10;" style="fill:none;stroke:#808080;stroke-dasharray:1.85,0.8;stroke-dashoffset:0;stroke-width:0.5;"/>
   </g>
   <g id="line2d_39">
    <path clip-path="url(#p265c53e62e)" d="M 167.392068 220.657024 &#10;L 167.392068 223.709837 &#10;" style="fill:none;stroke:#808080;stroke-dasharray:1.85,0.8;stroke-dashoffset:0;stroke-width:0.5;"/>
   </g>
   <g id="line2d_40">
    <path clip-path="url(#p265c53e62e)" d="M 166.019921 245.603485 &#10;L 166.019921 256.183062 &#10;" style="fill:none;stroke:#808080;stroke-dasharray:1.85,0.8;stroke-dashoffset:0;stroke-width:0.5;"/>
   </g>
   <g id="line2d_41">
    <path clip-path="url(#p265c53e62e)" d="M 162.589552 278.655691 &#10;L 162.589552 280.550541 &#10;" style="fill:none;stroke:#808080;stroke-dasharray:1.85,0.8;stroke-dashoffset:0;stroke-width:0.5;"/>
   </g>
   <g id="line2d_42">
    <path clip-path="url(#p265c53e62e)" d="M 160.53133 302.733679 &#10;L 160.53133 313.892238 &#10;" style="fill:none;stroke:#808080;stroke-dasharray:1.85,0.8;stroke-dashoffset:0;stroke-width:0.5;"/>
   </g>
   <g id="invisibleRectangle_Process:GO.0001568" style="cursor: pointer;">
    <path clip-path="url(#p265c53e62e)" d="M 139.229844 294.532234 &#10;L 542.021585 294.532234 &#10;L 542.021585 320.371092 &#10;L 139.229844 320.371092 &#10;z&#10;" style="fill:#ffffff;opacity:0.01;"/>
   </g>
   <g id="invisibleRectangle_Process:GO.0051917" style="cursor: pointer;">
    <path clip-path="url(#p265c53e62e)" d="M 139.229844 265.822391 &#10;L 542.021585 265.822391 &#10;L 542.021585 291.66125 &#10;L 139.229844 291.66125 &#10;z&#10;" style="fill:#ffffff;opacity:0.01;"/>
   </g>
   <g id="invisibleRectangle_Process:GO.0009611" style="cursor: pointer;">
    <path clip-path="url(#p265c53e62e)" d="M 139.229844 237.112549 &#10;L 542.021585 237.112549 &#10;L 542.021585 262.951407 &#10;L 139.229844 262.951407 &#10;z&#10;" style="fill:#ffffff;opacity:0.01;"/>
   </g>
   <g id="invisibleRectangle_Process:GO.0022617" style="cursor: pointer;">
    <path clip-path="url(#p265c53e62e)" d="M 139.229844 208.402706 &#10;L 542.021585 208.402706 &#10;L 542.021585 234.241564 &#10;L 139.229844 234.241564 &#10;z&#10;" style="fill:#ffffff;opacity:0.01;"/>
   </g>
   <g id="invisibleRectangle_Process:GO.0035987" style="cursor: pointer;">
    <path clip-path="url(#p265c53e62e)" d="M 139.229844 179.692863 &#10;L 542.021585 179.692863 &#10;L 542.021585 205.531722 &#10;L 139.229844 205.531722 &#10;z&#10;" style="fill:#ffffff;opacity:0.01;"/>
   </g>
   <g id="invisibleRectangle_Process:GO.0048251" style="cursor: pointer;">
    <path clip-path="url(#p265c53e62e)" d="M 139.229844 150.98302 &#10;L 542.021585 150.98302 &#10;L 542.021585 176.821879 &#10;L 139.229844 176.821879 &#10;z&#10;" style="fill:#ffffff;opacity:0.01;"/>
   </g>
   <g id="invisibleRectangle_Process:GO.0032963" style="cursor: pointer;">
    <path clip-path="url(#p265c53e62e)" d="M 139.229844 122.273178 &#10;L 542.021585 122.273178 &#10;L 542.021585 148.112036 &#10;L 139.229844 148.112036 &#10;z&#10;" style="fill:#ffffff;opacity:0.01;"/>
   </g>
   <g id="invisibleRectangle_Process:GO.0085029" style="cursor: pointer;">
    <path clip-path="url(#p265c53e62e)" d="M 139.229844 93.563335 &#10;L 542.021585 93.563335 &#10;L 542.021585 119.402193 &#10;L 139.229844 119.402193 &#10;z&#10;" style="fill:#ffffff;opacity:0.01;"/>
   </g>
   <g id="invisibleRectangle_Process:GO.0030199" style="cursor: pointer;">
    <path clip-path="url(#p265c53e62e)" d="M 139.229844 64.853492 &#10;L 542.021585 64.853492 &#10;L 542.021585 90.692351 &#10;L 139.229844 90.692351 &#10;z&#10;" style="fill:#ffffff;opacity:0.01;"/>
   </g>
   <g id="invisibleRectangle_Process:GO.0030198" style="cursor: pointer;">
    <path clip-path="url(#p265c53e62e)" d="M 139.229844 36.143649 &#10;L 542.021585 36.143649 &#10;L 542.021585 61.982508 &#10;L 139.229844 61.982508 &#10;z&#10;" style="fill:#ffffff;opacity:0.01;"/>
   </g>
  </g>
  <g id="axes_2">
   <g id="patch_13">
    <path d="M 548.501585 337.022801 &#10;L 649.19952 337.022801 &#10;L 649.19952 21.214531 &#10;L 548.501585 21.214531 &#10;z&#10;" style="fill:none;"/>
   </g>
   <g id="patch_14">
    <path clip-path="url(#p92b3959662)" d="M 548.501585 320.514642 &#10;L 561.088827 320.514642 &#10;L 561.088827 294.388685 &#10;L 548.501585 294.388685 &#10;z&#10;" style="fill:#1f7ab5;"/>
   </g>
   <g id="patch_15">
    <path clip-path="url(#p92b3959662)" d="M 548.501585 291.804799 &#10;L 561.088827 291.804799 &#10;L 561.088827 265.678842 &#10;L 548.501585 265.678842 &#10;z&#10;" style="fill:#234da0;"/>
   </g>
   <g id="patch_16">
    <path clip-path="url(#p92b3959662)" d="M 548.501585 263.094956 &#10;L 561.088827 263.094956 &#10;L 561.088827 236.968999 &#10;L 548.501585 236.968999 &#10;z&#10;" style="fill:#1f7ab5;"/>
   </g>
   <g id="patch_17">
    <path clip-path="url(#p92b3959662)" d="M 548.501585 234.385113 &#10;L 561.088827 234.385113 &#10;L 561.088827 208.259157 &#10;L 548.501585 208.259157 &#10;z&#10;" style="fill:#234da0;"/>
   </g>
   <g id="patch_18">
    <path clip-path="url(#p92b3959662)" d="M 548.501585 205.675271 &#10;L 561.088827 205.675271 &#10;L 561.088827 179.549314 &#10;L 548.501585 179.549314 &#10;z&#10;" style="fill:#234da0;"/>
   </g>
   <g id="patch_19">
    <path clip-path="url(#p92b3959662)" d="M 548.501585 176.965428 &#10;L 561.088827 176.965428 &#10;L 561.088827 150.839471 &#10;L 548.501585 150.839471 &#10;z&#10;" style="fill:#234da0;"/>
   </g>
   <g id="patch_20">
    <path clip-path="url(#p92b3959662)" d="M 548.501585 148.255585 &#10;L 561.088827 148.255585 &#10;L 561.088827 122.129628 &#10;L 548.501585 122.129628 &#10;z&#10;" style="fill:#234da0;"/>
   </g>
   <g id="patch_21">
    <path clip-path="url(#p92b3959662)" d="M 548.501585 119.545743 &#10;L 561.088827 119.545743 &#10;L 561.088827 93.419786 &#10;L 548.501585 93.419786 &#10;z&#10;" style="fill:#234da0;"/>
   </g>
   <g id="patch_22">
    <path clip-path="url(#p92b3959662)" d="M 548.501585 90.8359 &#10;L 561.088827 90.8359 &#10;L 561.088827 64.709943 &#10;L 548.501585 64.709943 &#10;z&#10;" style="fill:#1f7ab5;"/>
   </g>
   <g id="patch_23">
    <path clip-path="url(#p92b3959662)" d="M 548.501585 62.126057 &#10;L 561.088827 62.126057 &#10;L 561.088827 36.0001 &#10;L 548.501585 36.0001 &#10;z&#10;" style="fill:#d6efb3;"/>
   </g>
   <g id="matplotlib.axis_3"/>
   <g id="matplotlib.axis_4"/>
   <g id="text_19">
    <text style="font-family:Arial;font-size:9px;font-stretch:normal;font-style:normal;font-weight:normal;" transform="translate(576.004819 222.384125)rotate(-90)">Groups at similarity 0.8</text>
   </g>
  </g>
  <g id="axes_3">
   <g id="patch_24">
    <path d="M 587.39976 130.19976 &#10;L 652.19976 130.19976 &#10;L 652.19976 22.19976 &#10;L 587.39976 22.19976 &#10;z&#10;" style="fill:none;"/>
   </g>
   <g id="PathCollection_2">
    <defs>
     <path d="M -70.710678 70.710678 &#10;L 70.710678 70.710678 &#10;L 70.710678 -70.710678 &#10;L -70.710678 -70.710678 &#10;z&#10;" id="mbdfb9bacf3" style="stroke:#ffffff;stroke-opacity:0.6;"/>
    </defs>
    <g clip-path="url(#pcf64176647)">
     <use style="fill:#ffffff;fill-opacity:0.6;stroke:#ffffff;stroke-opacity:0.6;" x="619.79976" xlink:href="#mbdfb9bacf3" y="76.19976"/>
    </g>
   </g>
   <g id="matplotlib.axis_5">
    <g id="xtick_7"/>
    <g id="xtick_8"/>
    <g id="xtick_9"/>
   </g>
   <g id="matplotlib.axis_6">
    <g id="ytick_11"/>
    <g id="ytick_12"/>
    <g id="ytick_13"/>
    <g id="ytick_14"/>
    <g id="ytick_15"/>
   </g>
  </g>
  <g id="axes_4">
   <g id="patch_25">
    <path d="M 593.87976 126.59976 &#10;L 604.67976 126.59976 &#10;L 604.67976 40.19976 &#10;L 593.87976 40.19976 &#10;z&#10;" style="fill:none;"/>
   </g>
   <g id="patch_26">
    <path clip-path="url(#p6016176b65)" d="M 593.87976 40.19976 &#10;L 593.87976 54.59976 &#10;L 593.87976 112.19976 &#10;L 593.87976 126.59976 &#10;L 604.67976 126.59976 &#10;L 604.67976 112.19976 &#10;L 604.67976 54.59976 &#10;L 604.67976 40.19976 &#10;L 604.67976 40.19976 &#10;z&#10;" style="fill:#ffffff;stroke:#ffffff;stroke-linejoin:miter;stroke-width:0.01;"/>
   </g>
   <g id="QuadMesh_1">
    <path clip-path="url(#p6016176b65)" d="M 593.87976 40.19976 &#10;L 604.67976 40.19976 &#10;L 604.67976 54.59976 &#10;L 593.87976 54.59976 &#10;L 593.87976 40.19976 &#10;" style="fill:#d6efb3;"/>
    <path clip-path="url(#p6016176b65)" d="M 593.87976 54.59976 &#10;L 604.67976 54.59976 &#10;L 604.67976 68.99976 &#10;L 593.87976 68.99976 &#10;L 593.87976 54.59976 &#10;" style="fill:#a0dab8;"/>
    <path clip-path="url(#p6016176b65)" d="M 593.87976 68.99976 &#10;L 604.67976 68.99976 &#10;L 604.67976 83.39976 &#10;L 593.87976 83.39976 &#10;L 593.87976 68.99976 &#10;" style="fill:#5fc1c0;"/>
    <path clip-path="url(#p6016176b65)" d="M 593.87976 83.39976 &#10;L 604.67976 83.39976 &#10;L 604.67976 97.79976 &#10;L 593.87976 97.79976 &#10;L 593.87976 83.39976 &#10;" style="fill:#2fa4c2;"/>
    <path clip-path="url(#p6016176b65)" d="M 593.87976 97.79976 &#10;L 604.67976 97.79976 &#10;L 604.67976 112.19976 &#10;L 593.87976 112.19976 &#10;L 593.87976 97.79976 &#10;" style="fill:#1f7ab5;"/>
    <path clip-path="url(#p6016176b65)" d="M 593.87976 112.19976 &#10;L 604.67976 112.19976 &#10;L 604.67976 126.59976 &#10;L 593.87976 126.59976 &#10;L 593.87976 112.19976 &#10;" style="fill:#234da0;"/>
   </g>
   <g id="matplotlib.axis_7"/>
   <g id="matplotlib.axis_8">
    <g id="ytick_16">
     <g id="line2d_43">
      <defs>
       <path d="M 0 0 &#10;L 3.5 0 &#10;" id="m5b15461c46" style="stroke:#000000;stroke-width:0.8;"/>
      </defs>
      <g>
       <use style="stroke:#000000;stroke-width:0.8;" x="604.67976" xlink:href="#m5b15461c46" y="119.39976"/>
      </g>
     </g>
     <g id="text_20">
      <text style="font-family:Arial;font-size:9px;font-stretch:normal;font-style:normal;font-weight:normal;text-anchor:start;" transform="rotate(-0, 611.67976, 122.620776)" x="611.67976" y="122.620776">1.0e-07</text>
     </g>
    </g>
    <g id="ytick_17">
     <g id="line2d_44">
      <g>
       <use style="stroke:#000000;stroke-width:0.8;" x="604.67976" xlink:href="#m5b15461c46" y="104.99976"/>
      </g>
     </g>
     <g id="text_21">
      <text style="font-family:Arial;font-size:9px;font-stretch:normal;font-style:normal;font-weight:normal;text-anchor:start;" transform="rotate(-0, 611.67976, 108.220776)" x="611.67976" y="108.220776">1.0e-16</text>
     </g>
    </g>
    <g id="ytick_18">
     <g id="line2d_45">
      <g>
       <use style="stroke:#000000;stroke-width:0.8;" x="604.67976" xlink:href="#m5b15461c46" y="90.59976"/>
      </g>
     </g>
     <g id="text_22">
      <text style="font-family:Arial;font-size:9px;font-stretch:normal;font-style:normal;font-weight:normal;text-anchor:start;" transform="rotate(-0, 611.67976, 93.820776)" x="611.67976" y="93.820776">1.0e-24</text>
     </g>
    </g>
    <g id="ytick_19">
     <g id="line2d_46">
      <g>
       <use style="stroke:#000000;stroke-width:0.8;" x="604.67976" xlink:href="#m5b15461c46" y="76.19976"/>
      </g>
     </g>
     <g id="text_23">
      <text style="font-family:Arial;font-size:9px;font-stretch:normal;font-style:normal;font-weight:normal;text-anchor:start;" transform="rotate(-0, 611.67976, 79.420776)" x="611.67976" y="79.420776">1.0e-33</text>
     </g>
    </g>
    <g id="ytick_20">
     <g id="line2d_47">
      <g>
       <use style="stroke:#000000;stroke-width:0.8;" x="604.67976" xlink:href="#m5b15461c46" y="61.79976"/>
      </g>
     </g>
     <g id="text_24">
      <text style="font-family:Arial;font-size:9px;font-stretch:normal;font-style:normal;font-weight:normal;text-anchor:start;" transform="rotate(-0, 611.67976, 65.020776)" x="611.67976" y="65.020776">1.0e-41</text>
     </g>
    </g>
    <g id="ytick_21">
     <g id="line2d_48">
      <g>
       <use style="stroke:#000000;stroke-width:0.8;" x="604.67976" xlink:href="#m5b15461c46" y="47.39976"/>
      </g>
     </g>
     <g id="text_25">
      <text style="font-family:Arial;font-size:9px;font-stretch:normal;font-style:normal;font-weight:normal;text-anchor:start;" transform="rotate(-0, 611.67976, 50.620776)" x="611.67976" y="50.620776">1.0e-50</text>
     </g>
    </g>
   </g>
   <g id="LineCollection_1"/>
   <g id="patch_27">
    <path d="M 593.87976 40.19976 &#10;L 593.87976 54.59976 &#10;L 593.87976 112.19976 &#10;L 593.87976 126.59976 &#10;L 604.67976 126.59976 &#10;L 604.67976 112.19976 &#10;L 604.67976 54.59976 &#10;L 604.67976 40.19976 &#10;z&#10;" style="fill:none;"/>
   </g>
   <g id="text_26">
    <text style="font-family:Arial;font-size:9px;font-stretch:normal;font-style:normal;font-weight:normal;text-anchor:middle;" transform="rotate(-0, 599.27976, 34.19976)" x="599.27976" y="34.19976">FDR</text>
   </g>
  </g>
  <g id="axes_5">
   <g id="patch_28">
    <path d="M 587.39976 261.87336 &#10;L 648.95976 261.87336 &#10;L 648.95976 136.87848 &#10;L 587.39976 136.87848 &#10;z&#10;" style="fill:none;"/>
   </g>
   <g id="PathCollection_3">
    <g clip-path="url(#pdf733136e1)">
     <use style="fill:#ffffff;fill-opacity:0.6;stroke:#ffffff;stroke-opacity:0.6;" x="618.17976" xlink:href="#mbdfb9bacf3" y="199.37592"/>
    </g>
   </g>
   <g id="matplotlib.axis_9">
    <g id="xtick_10"/>
    <g id="xtick_11"/>
    <g id="xtick_12"/>
   </g>
   <g id="matplotlib.axis_10">
    <g id="ytick_22"/>
    <g id="ytick_23"/>
    <g id="ytick_24"/>
    <g id="ytick_25"/>
    <g id="ytick_26"/>
   </g>
  </g>
  <g id="axes_6">
   <g id="PathCollection_4">
    <defs>
     <path d="M 0 3.535534 &#10;C 0.937635 3.535534 1.836992 3.163008 2.5 2.5 &#10;C 3.163008 1.836992 3.535534 0.937635 3.535534 0 &#10;C 3.535534 -0.937635 3.163008 -1.836992 2.5 -2.5 &#10;C 1.836992 -3.163008 0.937635 -3.535534 0 -3.535534 &#10;C -0.937635 -3.535534 -1.836992 -3.163008 -2.5 -2.5 &#10;C -3.163008 -1.836992 -3.535534 -0.937635 -3.535534 0 &#10;C -3.535534 0.937635 -3.163008 1.836992 -2.5 2.5 &#10;C -1.836992 3.163008 -0.937635 3.535534 0 3.535534 &#10;z&#10;" id="m22bca50e8f" style="stroke:#b5c2a4;stroke-width:2.2;"/>
    </defs>
    <g clip-path="url(#pa2d7d7984a)">
     <use style="fill:#d6efb3;stroke:#b5c2a4;stroke-width:2.2;" x="610.07976" xlink:href="#m22bca50e8f" y="166.288375"/>
    </g>
   </g>
   <g id="PathCollection_5">
    <defs>
     <path d="M 0 8.122329 &#10;C 2.154067 8.122329 4.220198 7.266509 5.743354 5.743354 &#10;C 7.266509 4.220198 8.122329 2.154067 8.122329 0 &#10;C 8.122329 -2.154067 7.266509 -4.220198 5.743354 -5.743354 &#10;C 4.220198 -7.266509 2.154067 -8.122329 0 -8.122329 &#10;C -2.154067 -8.122329 -4.220198 -7.266509 -5.743354 -5.743354 &#10;C -7.266509 -4.220198 -8.122329 -2.154067 -8.122329 0 &#10;C -8.122329 2.154067 -7.266509 4.220198 -5.743354 5.743354 &#10;C -4.220198 7.266509 -2.154067 8.122329 0 8.122329 &#10;z&#10;" id="m930b0bfca1" style="stroke:#b5c2a4;stroke-width:2.2;"/>
    </defs>
    <g clip-path="url(#pa2d7d7984a)">
     <use style="fill:#d6efb3;stroke:#b5c2a4;stroke-width:2.2;" x="610.07976" xlink:href="#m930b0bfca1" y="186.300486"/>
    </g>
   </g>
   <g id="PathCollection_6">
    <defs>
     <path d="M 0 10.206207 &#10;C 2.706718 10.206207 5.30294 9.130817 7.216878 7.216878 &#10;C 9.130817 5.30294 10.206207 2.706718 10.206207 0 &#10;C 10.206207 -2.706718 9.130817 -5.30294 7.216878 -7.216878 &#10;C 5.30294 -9.130817 2.706718 -10.206207 0 -10.206207 &#10;C -2.706718 -10.206207 -5.30294 -9.130817 -7.216878 -7.216878 &#10;C -9.130817 -5.30294 -10.206207 -2.706718 -10.206207 0 &#10;C -10.206207 2.706718 -9.130817 5.30294 -7.216878 7.216878 &#10;C -5.30294 9.130817 -2.706718 10.206207 0 10.206207 &#10;z&#10;" id="mec979da4f3" style="stroke:#b5c2a4;stroke-width:2.2;"/>
    </defs>
    <g clip-path="url(#pa2d7d7984a)">
     <use style="fill:#d6efb3;stroke:#b5c2a4;stroke-width:2.2;" x="610.07976" xlink:href="#mec979da4f3" y="213.159574"/>
    </g>
   </g>
   <g id="PathCollection_7">
    <defs>
     <path d="M 0 11.931518 &#10;C 3.164275 11.931518 6.199376 10.674338 8.436857 8.436857 &#10;C 10.674338 6.199376 11.931518 3.164275 11.931518 0 &#10;C 11.931518 -3.164275 10.674338 -6.199376 8.436857 -8.436857 &#10;C 6.199376 -10.674338 3.164275 -11.931518 0 -11.931518 &#10;C -3.164275 -11.931518 -6.199376 -10.674338 -8.436857 -8.436857 &#10;C -10.674338 -6.199376 -11.931518 -3.164275 -11.931518 0 &#10;C -11.931518 3.164275 -10.674338 6.199376 -8.436857 8.436857 &#10;C -6.199376 10.674338 -3.164275 11.931518 0 11.931518 &#10;z&#10;" id="mb5a2420567" style="stroke:#b5c2a4;stroke-width:2.2;"/>
    </defs>
    <g clip-path="url(#pa2d7d7984a)">
     <use style="fill:#d6efb3;stroke:#b5c2a4;stroke-width:2.2;" x="610.07976" xlink:href="#mb5a2420567" y="243.20153"/>
    </g>
   </g>
   <g id="text_27">
    <text style="font-family:Arial;font-size:9px;font-stretch:normal;font-style:normal;font-weight:normal;text-anchor:start;" transform="rotate(-0, 626.27976, 169.744862)" x="626.27976" y="169.744862">5</text>
   </g>
   <g id="text_28">
    <text style="font-family:Arial;font-size:9px;font-stretch:normal;font-style:normal;font-weight:normal;text-anchor:start;" transform="rotate(-0, 626.27976, 189.756973)" x="626.27976" y="189.756973">20</text>
   </g>
   <g id="text_29">
    <text style="font-family:Arial;font-size:9px;font-stretch:normal;font-style:normal;font-weight:normal;text-anchor:start;" transform="rotate(-0, 626.27976, 216.616061)" x="626.27976" y="216.616061">30</text>
   </g>
   <g id="text_30">
    <text style="font-family:Arial;font-size:9px;font-stretch:normal;font-style:normal;font-weight:normal;text-anchor:start;" transform="rotate(-0, 626.27976, 246.658016)" x="626.27976" y="246.658016">40</text>
   </g>
   <g id="text_31">
    <text style="font-family:Arial;font-size:9px;font-stretch:normal;font-style:normal;font-weight:normal;text-anchor:middle;" transform="rotate(-0, 616.55976, 150.11976)" x="616.55976" y="150.11976">Gene count</text>
   </g>
  </g>
 </g>
 <defs>
  <clipPath id="p265c53e62e">
   <rect height="315.80827" width="402.791741" x="139.229844" y="21.214531"/>
  </clipPath>
  <clipPath id="p92b3959662">
   <rect height="315.80827" width="100.697935" x="548.501585" y="21.214531"/>
  </clipPath>
  <clipPath id="pcf64176647">
   <rect height="108" width="64.8" x="587.39976" y="22.19976"/>
  </clipPath>
  <clipPath id="p6016176b65">
   <rect height="86.4" width="10.8" x="593.87976" y="40.19976"/>
  </clipPath>
  <clipPath id="pdf733136e1">
   <rect height="124.99488" width="61.56" x="587.39976" y="136.87848"/>
  </clipPath>
  <clipPath id="pa2d7d7984a">
   <rect height="146.88" width="32.4" x="593.87976" y="156.11976"/>
  </clipPath>
 </defs>
</svg>